SplineFontDB: 3.0
FontName: Astronomical-Book-of-Enoch-4Q208
FullName: Astronomical-Book-of-Enoch-4Q208
FamilyName: Astronomical-Book-of-Enoch-4Q208
Weight: Black
Copyright: Created with FontForge 2.0 : Astronomical-Book-of-Enoch-4Q208 : 25-6-2021 by Florin Ciprian Bodin (C) Copyright 2021-2022 International Institute of Biblical Archaeology and Linguistic Reasearch "Beit Dina" (www.beitdina.net); 
Version: 0.0.1
ItalicAngle: 0
UnderlinePosition: -150
UnderlineWidth: 21
Ascent: 819
Descent: 205
InvalidEm: 0
sfntRevision: 0x00020000
LayerCount: 2
Layer: 0 0 "Back" 1
Layer: 1 0 "Fore" 0
XUID: [1021 501 -296948436 30985]
FSType: 0
OS2Version: 0
OS2_WeightWidthSlopeOnly: 0
OS2_UseTypoMetrics: 0
CreationTime: 1638276842
ModificationTime: 1638305880
PfmFamily: 17
TTFWeight: 1024
TTFWidth: 5
LineGap: 92
VLineGap: 92
Panose: 1 1 3 1 1 1 1 1 1 1
OS2TypoAscent: 0
OS2TypoAOffset: 1
OS2TypoDescent: 0
OS2TypoDOffset: 1
OS2TypoLinegap: 92
OS2WinAscent: 0
OS2WinAOffset: 1
OS2WinDescent: 0
OS2WinDOffset: 1
HheadAscent: 0
HheadAOffset: 1
HheadDescent: 0
HheadDOffset: 1
OS2Vendor: 'PfEd'
MarkAttachClasses: 1
DEI: 91125
LangName: 1033
Encoding: Original
UnicodeInterp: none
NameList: AGL For New Fonts
DisplaySize: -96
AntiAlias: 1
FitToEm: 0
WinInfo: 0 10 4
BeginPrivate: 0
EndPrivate
TeXData: 1 0 0 524288 262144 174762 0 1048576 174762 783286 444596 497025 792723 393216 433062 380633 303038 157286 324010 404750 52429 2506097 1059062 262144
BeginChars: 33 32

StartChar: .notdef
Encoding: 0 0 0
Width: 512
Flags: W
LayerCount: 2
Fore
SplineSet
242.9375 67.625 m 0
 242.23522 67.66565 241.58878 68.011148 240.9375 68.53125 c 0
 240.28622 69.051352 239.63324 69.769402 238.84375 70.6875 c 0
 235.68577 74.359891 230.64264 81.2284 219.1875 90.6875 c 2
 219.0938 90.75 l 1
 219.0626 90.84375 l 2
 214.25443 99.822783 209.35623 113.09123 204.1876 126.0625 c 0
 199.02325 139.02302 193.56957 151.68848 187.71885 159.375 c 0
 187.71385 159.381 187.72385 159.3999 187.71885 159.4062 c 0
 129.84461 224.60094 92.305331 280.98088 67.6875 354.9375 c 0
 51.211726 404.43384 43.448533 466.75712 49.90625 531.90625 c 0
 55.902729 588.16072 72.135574 640.73421 97.65625 686.9375 c 0
 129.13998 743.85684 160.03324 795.61462 191.625 836.09375 c 0
 205.35141 853.68164 220.4187 869.91132 237.96875 884.9375 c 0
 237.98035 884.9491 237.98845 884.9572 237.99995 884.9687 c 0
 242.53982 889.51222 246.32187 890.87829 249.6562 889.99995 c 0
 254.42408 888.744 257.97059 883.22144 262.06245 877.0312 c 0
 272.17069 861.54446 285.72029 844.62311 299.1562 827.5937 c 0
 312.6689 810.46698 319.6221 789.20013 329.2812 773.3437 c 0
 354.76389 731.51117 378.33861 689.50721 396.87495 648.68745 c 0
 417.67103 601.64424 435.05392 543.99303 435.18745 479.5937 c 0
 433.12889 401.63797 405.00877 329.3446 368.5312 264.0312 c 1
 368.5 264 l 1
 358.72423 246.83695 342.19226 223.74495 325.84375 200 c 0
 309.49524 176.25505 293.35678 151.87472 284.34375 132.28125 c 0
 279.72378 122.23788 279.65178 116.75827 278.59375 111.375 c 0
 277.53572 105.99173 275.43677 100.77639 266.9375 91.625 c 0
 256.15253 80.775908 250.81848 73.953243 247.46875 70.46875 c 0
 246.55296 69.516114 245.78281 68.79022 245.0625 68.3125 c 0
 244.34219 67.83478 243.63978 67.584347 242.9375 67.625 c 0
243 68.625 m 0
 243.43044 68.60008 243.91946 68.750499 244.53125 69.15625 c 0
 245.14304 69.562001 245.85768 70.228031 246.75 71.15625 c 0
 250.01387 74.551437 255.40214 81.431572 266.21875 92.3125 c 0
 274.64546 101.38578 276.55903 106.32907 277.59375 111.59375 c 0
 278.62847 116.85843 278.7613 122.52192 283.4375 132.6875 c 0
 292.50852 152.40706 308.67611 176.80792 325.03125 200.5625 c 0
 341.38639 224.31708 357.92941 247.42287 367.65625 264.5 c 0
 404.08742 329.73032 432.13486 401.8622 434.1875 479.59375 c 0
 434.05435 543.8143 416.72603 601.32582 395.96875 648.28125 c 0
 377.45753 689.04569 353.90793 731.03136 328.4375 772.84375 c 0
 318.68368 788.85566 311.74152 810.02729 298.375 826.96875 c 0
 284.94189 843.99462 271.3993 860.95036 261.25 876.5 c 0
 257.15836 882.6899 253.57247 887.9338 249.40625 889.03125 c 0
 246.48527 889.8007 243.1212 888.69922 238.6875 884.25 c 2
 238.6563 884.2188 l 2
 221.14717 869.23192 206.1067 853.05463 192.40625 835.5 c 0
 160.87451 795.09779 130.00524 743.33924 98.53125 686.4375 c 0
 73.078886 640.35789 56.889509 587.94295 50.90625 531.8125 c 0
 44.462471 466.80397 52.198976 404.59688 68.625 355.25 c 0
 93.197051 281.43091 130.63297 225.18011 188.46875 160.03125 c 1
 188.49995 160.03125 l 1
 188.49995 160.00005 l 1
 194.4947 152.13363 199.94974 139.42534 205.12495 126.43755 c 0
 210.28476 113.48841 215.17215 100.27142 219.9062 91.4063 c 0
 231.36697 81.9273 236.50477 74.935895 239.5937 71.3438 c 0
 240.36808 70.443276 241.00375 69.758716 241.56245 69.31255 c 0
 242.12115 68.866384 242.56951 68.649967 243 68.625 c 0
243.625 182.03125 m 1
 243.1875 182.5625 l 2
 196.62531 239.82865 144.95799 297.40709 124.1875 363.21875 c 1
 124.1875 363.24995 l 1
 108.37234 415.88077 103.73667 480.35292 109.625 533.81245 c 0
 114.2654 576.07818 126.58535 615.91708 145.125 652.5937 c 0
 171.28034 704.3363 195.96415 773.63634 243.125 810.7812 c 2
 243.53125 811.0937 l 1
 243.84375 810.7187 l 2
 292.60232 751.28241 323.80221 689.81517 357.59375 613.7187 c 0
 374.8783 570.53877 386.01704 520.94439 382.875 479.3125 c 0
 377.58167 421.04269 351.78427 360.04804 321.0625 302.5625 c 0
 298.61553 260.56048 265.60385 218.41339 244 182.625 c 2
 243.625 182.03125 l 1
243.5313 183.78125 m 1
 265.19286 219.52659 297.92705 261.40939 320.18755 303.0625 c 0
 350.87506 360.48395 376.59629 421.34349 381.87505 479.375 c 0
 381.87582 479.3852 381.87428 479.3961 381.87505 479.4062 c 0
 384.99082 520.78654 373.8874 570.25696 356.6563 613.31245 c 0
 356.6523 613.32145 356.6603 613.33475 356.6563 613.34365 c 0
 322.9571 689.23012 291.85751 750.48248 243.375 809.6875 c 1
 196.80348 772.73785 172.16288 703.85194 146.03125 652.15625 c 0
 127.54276 615.58081 115.2519 575.86154 110.625 533.71875 c 0
 104.75251 480.40304 109.39043 415.99787 125.15625 363.53125 c 0
 145.76775 298.22335 197.0654 240.89198 243.5313 183.78125 c 1
EndSplineSet
Validated: 6815777
EndChar

StartChar: "+BdAFtwXcBbAF4wAA"
Encoding: 4 1488 4
Width: 1024
Flags: W
LayerCount: 2
Fore
SplineSet
590.95561 318.68685 m 0
 582.9146 329.78191 568.7591 347.1282 561.75738 358.44996 c 0
 554.85717 369.60758 549.21739 373.76385 542.43271 384.16659 c 0
 532.92752 398.74063 522.0872 412.0989 513.9344 422.9106 c 0
 505.93018 433.52527 497.6627 443.71761 489.18051 453.40543 c 0
 480.22028 463.65114 471.3051 474.15802 462.49993 484.7192 c 0
 449.06869 500.82906 438.60034 511.97363 425.91186 527.60208 c 0
 418.00953 537.33542 410.296 546.83301 402.82701 555.91752 c 0
 394.12163 566.50581 385.05489 578.61363 377.10215 587.79879 c 0
 375.14176 589.93635 371.27922 594.54402 366.754 599.9011 c 0
 363.19286 604.11687 359.22131 608.79675 355.44343 613.10213 c 0
 348.62493 620.87267 342.43727 627.42329 340.43187 627.82362 c 0
 327.36368 627.60546 322.45878 620.94436 314.07695 612.4899 c 0
 291.93232 583.41956 221.96016 468.15491 219.90509 428.86518 c 0
 216.83414 384.58995 213.41943 351.37687 197.80976 319.92119 c 0
 184.23877 295.45499 156.71053 268.8848 129.02546 278.27079 c 0
 108.03028 285.64406 90.936676 309.02331 80.852716 321.16999 c 0
 69.313151 341.21285 67.785111 361.55521 67.463131 383.54949 c 0
 66.494474 426.89404 72.377314 471.89882 85.513498 514.16902 c 0
 95.906337 547.61155 111.61761 579.08298 126.62419 608.48096 c 0
 133.70972 621.39255 137.85363 630.30627 146.82418 640.64372 c 0
 159.79279 660.41865 173.36799 675.83746 187.41623 690.99828 c 0
 191.2586 695.14495 194.9807 698.57876 198.49465 702.77069 c 0
 215.47765 722.14996 234.42947 749.16328 247.99854 768.97219 c 0
 265.00731 793.90281 281.51692 814.0757 301.30486 833.66176 c 0
 305.94888 837.86426 310.7261 842.17606 315.54909 846.47207 c 0
 334.84352 864.29952 352.21284 877.94191 374.61722 891.10123 c 1
 402.42177 900.99636 419.07639 899.19388 437.33714 891.02313 c 0
 443.07144 887.44853 449.30693 884.71889 455.31219 881.82438 c 0
 463.0395 878.09986 470.3856 874.10236 475.79221 867.68042 c 0
 478.87613 863.8804 489.95035 847.07978 484.66077 832.46275 c 0
 476.75272 810.30324 468.81793 791.12142 476.3803 769.2199 c 0
 486.27302 746.77414 498.5285 723.2136 509.02435 703.24681 c 0
 520.26833 682.03874 532.78851 661.49882 543.32368 642.41723 c 0
 548.7126 632.63861 554.30403 623.70167 562.27312 615.27757 c 0
 575.45892 601.34952 587.61654 590.17757 606.20523 582.09542 c 0
 615.06763 578.33698 623.58815 577.55507 635.78181 580.80589 c 0
 671.29347 585.66454 666.81065 604.73107 685.94639 623.47456 c 0
 691.7701 628.60755 697.12098 633.90259 701.7026 639.55812 c 0
 712.12163 653.39672 719.00767 669.18837 719.72194 686.62271 c 0
 721.25019 708.68181 720.65546 732.84458 723.85206 753.58368 c 0
 728.00524 771.55315 731.35627 794.73707 737.76863 814.84208 c 0
 742.23164 829.17925 748.74678 839.88358 756.87409 848.84063 c 0
 769.69767 861.84043 782.29815 870.16631 795.64537 879.12 c 0
 815.66137 892.72686 844.11081 905.8244 864.58094 898.58657 c 0
 875.4489 893.32529 883.91517 887.07563 891.21082 880.26116 c 0
 905.75281 867.97236 916.19856 852.11423 920.13831 835.65608 c 0
 922.76038 824.70246 922.50062 813.48306 918.64863 802.87323 c 0
 910.1885 784.31002 905.14166 766.40681 893.20861 751.15377 c 0
 884.51938 734.46899 870.47989 716.68116 856.54319 704.74906 c 0
 845.20634 695.04287 837.52906 692.18318 831.6174 679.84841 c 0
 824.89903 665.54018 822.00922 652.64268 815.92042 639.57573 c 0
 795.39277 613.13939 798.49462 587.14219 796.01149 562.50872 c 0
 787.8289 519.6289 752.026 476.49828 740.39201 436.80491 c 0
 739.59275 434.07796 738.90757 431.36724 738.35324 428.67394 c 0
 737.53715 424.70875 737.0047 420.7813 736.80948 416.89543 c 0
 736.70064 414.60011 736.64666 412.29349 736.63049 409.97851 c 0
 736.60789 406.74407 736.65909 403.49329 736.73758 400.23415 c 0
 736.81608 396.97443 736.92189 393.70636 737.00847 390.43792 c 0
 737.06967 388.12607 737.12134 385.81404 737.14688 383.50464 c 0
 734.39065 361.7897 738.08294 340.22059 742.01635 320.04006 c 0
 745.16831 303.68814 750.03959 277.04604 751.41742 256.07045 c 0
 752.63598 246.999 751.52669 240.83221 748.83931 235.67575 c 0
 745.34203 228.96525 739.17212 223.96582 731.98207 216.50236 c 0
 725.30869 209.59393 718.45147 202.98086 711.49169 196.72404 c 0
 704.93999 190.863 698.03718 185.42382 689.79384 180.38644 c 0
 660.07004 162.38003 645.46078 173.7981 637.05086 194.58995 c 0
 629.71739 212.7205 627.09782 237.97877 623.28084 257.06993 c 0
 620.94594 270.42004 614.37124 281.22764 606.67848 291.17429 c 0
 599.61275 300.31019 597.48886 309.70062 590.95561 318.68685 c 0
EndSplineSet
Validated: 524833
EndChar

StartChar: "+BdEFtQW8BeoA"
Encoding: 5 1489 5
Width: 1024
Flags: W
LayerCount: 2
Fore
SplineSet
91.692486 178.11747 m 1
 59.220586 170.57694 55.132586 194.76772 62.150986 208.89345 c 0
 76.007786 230.21161 86.393543 237.69422 113.38905 254.15615 c 0
 120.46337 259.06058 135.2745 266.08156 151.29975 272.5911 c 0
 174.52597 280.55055 188.88081 286.54703 211.95584 292.62376 c 0
 233.96 298.41843 255.86628 303.39413 277.6198 307.62162 c 0
 322.21515 316.19692 366.67517 319.76147 405.68593 321.22463 c 0
 439.09981 322.45432 475.54513 323.50186 509.42361 325.11149 c 0
 573.53127 328.15731 723.58967 317.52224 731.38303 329.63566 c 0
 729.67967 333.35308 727.05075 338.64602 726.95498 341.82939 c 0
 726.70572 350.11482 727.38511 355.43671 726.68546 365.91939 c 0
 727.25124 368.47731 728.69238 373.89291 729.05408 376.28852 c 0
 719.42959 443.89864 692.16379 499.59952 659.18305 552.15545 c 0
 649.12427 567.5219 644.94276 578.39784 623.62098 581.91815 c 0
 602.62735 585.26594 574.80753 582.4512 560.0748 581.82335 c 0
 539.8232 581.01426 520.70098 581.84395 500.25175 581.31518 c 0
 478.20408 580.74504 452.97082 580.87606 434.2373 582.8688 c 0
 417.24089 584.90166 398.22424 587.101 386.59649 594.06262 c 0
 370.62127 606.81161 358.41658 622.36556 354.8193 642.4628 c 0
 354.35673 661.33715 349.68568 680.59092 354.70952 697.03031 c 0
 356.41028 702.49035 358.8449 707.81535 361.67695 712.97206 c 0
 363.98994 718.77825 364.82707 723.64077 366.14807 728.29406 c 0
 368.71565 734.37328 371.55103 740.48886 374.27164 746.52158 c 0
 377.15556 752.91591 379.9102 759.21715 382.08019 765.28334 c 0
 384.75807 772.68174 389.30832 780.64695 392.01548 787.31421 c 0
 393.77944 791.51368 396.4523 795.22905 399.70822 799.82132 c 0
 410.79934 815.46421 419.73208 818.57514 426.0682 821.35211 c 0
 435.22968 826.86478 447.0371 827.42424 456.8191 821.99478 c 0
 465.74392 816.87979 472.61614 809.62298 476.14723 801.11126 c 0
 478.73989 794.77331 479.44958 788.9188 479.95482 783.11429 c 0
 482.59258 770.12208 483.72996 758.56105 488.49498 747.12824 c 0
 491.53033 739.71282 493.07347 731.409 492.93945 723.61111 c 0
 492.86555 716.89201 496.6655 713.56243 496.89768 706.27419 c 1
 509.16747 713.20291 518.41345 717.1507 534.33605 719.22865 c 0
 571.79969 724.11776 609.26686 720.61722 664.94779 719.27595 c 1
 715.95175 712.06369 751.61847 681.67764 778.57084 645.99079 c 0
 792.22425 622.21375 803.80893 596.79294 813.75121 570.63114 c 0
 830.12314 527.55058 842.04152 482.46077 851.40998 439.39291 c 0
 856.50522 415.96946 865.75042 396.08663 869.64339 374.50789 c 0
 885.72553 316.40132 866.46451 241.01064 821.51236 205.70574 c 0
 813.85266 200.00231 818.12512 197.86745 808.95072 193.44309 c 0
 789.7065 190.51819 770.52539 188.76228 751.37946 187.78708 c 0
 667.44146 183.51166 583.19865 194.24169 498.25811 187.25832 c 0
 478.22469 186.0422 455.9331 187.3724 435.47848 187.10429 c 0
 324.55396 185.65032 212.90381 192.92064 122.03282 177.54874 c 0
 119.85622 177.0663 106.20306 177.32226 91.692486 178.11747 c 1
EndSplineSet
Validated: 524833
EndChar

StartChar: "+BdIFtwW8Bd4FsAXc"
Encoding: 6 1490 6
Width: 800
Flags: W
LayerCount: 2
Fore
SplineSet
557.53914 782.82975 m 0
 553.02458 754.41075 551.84685 739.9483 547.41851 712.8398 c 0
 539.80328 666.22249 526.94526 625.10081 522.38511 580.37116 c 0
 518.52428 550.17904 518.09528 528.56184 516.00271 501.16449 c 0
 514.45648 494.26835 516.21499 486.82498 514.46209 480.44674 c 1
 522.97502 469.50803 533.38839 457.36038 540.87377 447.80853 c 0
 616.31579 351.53944 643.41972 319.68121 699.7872 230.76105 c 0
 710.77442 214.06811 721.57785 203.4136 705.64829 190.04411 c 0
 696.32676 182.31482 682.20202 174.76061 664.81255 167.73998 c 0
 645.87849 157.94043 642.23795 162.44348 632.57558 177.97556 c 0
 568.01678 281.72406 519.26551 346.83655 440.49049 447.54441 c 1
 420.48172 442.00398 398.4278 435.4407 378.36137 428.10913 c 0
 280.06409 392.19473 184.34776 337.8443 100.1338 294.98186 c 0
 54.807798 271.6953 53.383968 288.90466 51.993138 290.70028 c 0
 48.395628 309.91759 52.447448 319.46004 61.355228 329.37764 c 0
 141.83011 390.01458 264.60232 438.36041 345.14162 477.47236 c 0
 366.92175 487.01268 387.10755 492.89026 402.55043 506.03252 c 0
 405.20233 510.91458 408.03971 516.91173 410.88472 523.53643 c 0
 420.17732 545.17454 429.55124 567.95918 432.80853 585.99794 c 0
 440.71406 632.41002 445.42206 681.09971 450.19541 727.9861 c 0
 453.39051 759.37 450.85021 776.76835 461.3074 805.31245 c 0
 463.41559 810.18105 467.42069 814.53445 472.59794 818.12545 c 0
 481.9368 824.60305 495.08958 828.59975 507.80241 828.66395 c 0
 523.59952 825.53015 540.75215 812.42465 549.84501 803.41085 c 0
 556.61999 797.53195 558.54444 789.51345 557.53914 782.82975 c 0
EndSplineSet
Validated: 524833
EndChar

StartChar: "+BdMFtQXcBbAF6gW8"
Encoding: 7 1491 7
Width: 800
Flags: W
LayerCount: 2
Fore
SplineSet
609.60011 195.19182 m 0
 606.46622 196.92119 605.4498 198.96404 604.84992 201.0132 c 0
 604.17497 203.3189 604.02737 205.63262 601.98406 207.51685 c 0
 599.4718 209.8965 598.66554 214.45576 598.66554 226.28227 c 0
 584.0667 274.95065 572.50118 329.95578 555.79867 372.03358 c 0
 542.17078 405.88983 549.8486 394.50492 536.29491 437.49416 c 0
 523.53685 467.06767 515.12009 498.5659 501.01905 526.57646 c 1
 490.66945 538.03577 480.19432 552.84445 468.13656 563.94711 c 0
 443.67296 586.82184 409.57878 573.94265 379.62804 563.87461 c 0
 359.30686 557.54737 337.74934 551.88764 317.4318 545.70712 c 0
 296.44771 539.83213 275.09094 531.96945 253.71622 524.38985 c 0
 220.70727 512.68467 187.65549 501.6546 155.86728 499.66268 c 0
 147.11772 498.24566 137.90944 497.33384 129.62817 496.50292 c 0
 121.39352 495.61389 110.5704 499.39434 107.11153 506.02628 c 0
 104.8837 510.75505 104.28299 516.6642 104.3444 522.09121 c 0
 104.3972 524.7114 104.75313 527.27748 105.55188 529.75026 c 0
 106.60307 532.94055 108.22992 535.77646 108.97583 538.42091 c 0
 110.07201 541.50675 111.23189 544.55211 112.43049 547.55382 c 0
 114.52045 552.78777 116.72815 557.88899 118.92117 562.84062 c 0
 137.63127 605.09398 156.53888 649.79718 145.88554 696.15042 c 0
 147.54649 704.66893 139.66422 711.09731 139.21478 718.202 c 0
 138.27025 725.27047 136.33949 732.16873 134.03168 738.40636 c 0
 131.91969 753.60151 123.3826 766.51218 118.37368 780.24388 c 0
 115.11218 789.32527 113.83738 797.45526 117.23953 803.36202 c 0
 121.55799 809.44613 124.10077 807.81329 129.8446 808.03644 c 0
 135.40823 807.87382 143.8417 808.63851 147.05676 806.17388 c 0
 151.84863 802.11932 156.66167 803.95491 160.281 803.98991 c 0
 162.08457 804.00731 165.58689 803.19192 167.83659 804.73964 c 0
 171.35067 807.36298 173.99399 804.96692 179.62842 807.14532 c 0
 184.30691 808.2278 194.00907 805.3119 195.29126 802.7224 c 0
 197.78152 798.74175 204.48901 801.00402 206.10127 801.47856 c 0
 215.97564 802.26112 216.68945 798.7622 222.73713 794.86296 c 0
 228.69272 792.35029 229.73813 790.77246 231.47292 786.67448 c 0
 234.43144 780.89851 236.02871 775.95621 238.40157 770.6908 c 0
 239.21209 768.86211 239.38453 766.53036 240.42628 764.67862 c 0
 243.23924 759.67841 245.54075 754.62647 245.54075 753.45212 c 0
 252.20389 743.30001 251.88793 734.42121 251.45883 724.99496 c 0
 251.15989 718.42788 251.40913 711.39405 251.39193 704.32323 c 0
 251.41683 700.64657 251.78546 696.24284 251.0507 691.65443 c 0
 249.35929 681.09198 247.52343 666.42587 243.8264 660.52231 c 0
 240.40736 656.04727 242.22278 653.57703 245.59351 651.03567 c 0
 248.57883 648.56784 251.42591 645.56428 254.18794 642.48613 c 0
 256.87407 639.31997 259.52888 636.34567 262.29326 633.61245 c 0
 265.67524 630.2686 269.22122 627.28559 273.18923 624.75357 c 0
 275.23847 623.50188 279.69871 624.0904 282.76341 624.0904 c 0
 295.00513 628.8158 305.19343 630.18637 316.54523 633.9816 c 0
 338.67719 641.38096 358.24214 646.48914 377.74174 654.3043 c 0
 398.93274 662.79734 420.6864 674.98575 441.08305 688.5861 c 0
 444.50802 690.89193 448.87547 691.45638 450.3914 692.97512 c 0
 452.13036 695.39584 453.74284 697.35997 455.44424 698.91695 c 0
 457.6397 700.92606 459.9832 702.25723 462.93752 703.01672 c 0
 469.14574 709.00811 475.18993 712.14239 481.14798 717.71236 c 0
 494.67342 727.06997 489.46579 733.71409 486.14268 746.67815 c 0
 484.57432 751.29953 484.08555 755.59156 488.46162 759.15331 c 0
 490.96837 761.04964 493.71706 763.05845 496.59119 764.91003 c 0
 501.40921 768.01392 506.57975 770.67602 511.55403 771.62597 c 0
 517.66261 772.76036 523.82135 773.02721 527.68199 775.73878 c 0
 534.78612 780.70889 535.71305 780.70527 544.7268 775.67278 c 0
 550.45347 774.2927 556.28699 773.48285 561.90701 772.35204 c 0
 569.23837 770.49519 577.4626 767.78735 583.09042 763.32835 c 0
 587.29056 760.0005 590.0445 755.69731 589.90177 750.04457 c 0
 589.69189 744.76184 591.35229 742.01802 599.03458 734.95241 c 0
 605.23086 729.25352 609.9188 722.53607 612.81971 715.19929 c 0
 615.23738 709.08468 617.94236 703.20009 618.83073 702.12243 c 0
 619.7191 701.04477 620.95604 695.23163 621.57944 689.20436 c 0
 622.20284 683.17706 624.10485 676.20794 625.80614 673.7174 c 0
 631.10728 665.95695 630.48445 626.19289 624.8389 611.96601 c 0
 623.75752 609.24093 620.07628 605.44813 616.65835 603.5376 c 0
 609.86353 599.73947 611.62946 595.81156 611.62946 586.95196 c 0
 611.62946 583.98474 613.45036 576.16338 615.67591 569.57112 c 0
 643.03929 469.99518 647.80572 431.36607 673.05861 339.09148 c 0
 675.60486 329.75242 677.92707 320.47475 680.03137 311.31136 c 0
 681.48264 301.36231 690.12097 275.21855 687.32068 270.18399 c 0
 684.14967 266.61919 686.25705 263.62033 686.73239 261.60029 c 0
 687.22898 258.1714 686.77239 253.3983 685.19823 251.03993 c 0
 686.75086 248.60794 686.38176 245.3942 685.7821 242.32032 c 0
 685.15176 239.08921 684.26668 236.01266 685.09102 234.16111 c 0
 688.97355 225.47569 681.90257 221.59361 672.31474 216.47028 c 0
 660.87073 210.3551 656.858 206.63721 653.29181 206.63721 c 0
 648.14575 205.19924 641.53549 202.55315 638.33648 199.54393 c 0
 636.43658 197.66355 634.34679 196.00982 631.30939 195.25635 c 0
 620.69337 192.42568 614.98532 192.4087 609.60011 195.19182 c 0
EndSplineSet
Validated: 524833
EndChar

StartChar: "+BdQFtQXU"
Encoding: 8 1492 8
Width: 800
Flags: W
LayerCount: 2
Fore
SplineSet
307.85912 179.34556 m 0
 296.53615 200.94315 297.51011 222.9953 293.76325 244.43398 c 0
 287.67676 269.54956 284.33229 290.97453 286.26053 315.38499 c 0
 286.44419 335.92207 283.1624 353.57682 280.92342 371.21804 c 0
 273.41977 396.52951 286.21148 426.33578 281.89416 448.6685 c 0
 277.61905 466.87713 286.79557 528.72542 274.82384 537.35735 c 0
 264.84821 548.05147 220.60062 548.32432 210.27487 544.20073 c 0
 201.31548 540.6228 194.59126 543.36453 192.19269 538.5816 c 0
 188.61978 529.60994 191.35844 522.6711 189.2371 518.0499 c 0
 188.45638 516.34915 186.3708 514.31573 183.84517 513.38553 c 0
 180.37898 511.22971 174.14638 511.32982 167.16487 511.62348 c 0
 160.05596 510.6243 155.85333 512.97745 148.94711 512.24309 c 0
 136.49744 510.66801 128.26523 512.86891 114.06649 511.80744 c 0
 111.38109 511.97947 106.08732 512.20448 100.91259 512.60606 c 0
 95.079397 513.05874 89.050685 512.34867 87.426651 513.42712 c 0
 85.767808 514.52868 84.546798 517.44831 83.328283 519.11473 c 0
 81.370177 526.69139 79.590053 529.00049 73.945494 531.09868 c 0
 70.996048 532.19918 68.935977 535.18242 68.626772 538.58582 c 0
 68.339051 541.72036 66.607435 544.51311 66.273643 548.65272 c 0
 65.637073 556.54733 66.079771 565.55678 65.989084 572.96192 c 0
 65.618173 581.44766 69.115768 583.86179 70.65549 585.78083 c 0
 73.200678 588.95304 75.202328 588.36931 80.953731 593.91281 c 0
 82.441398 595.4382 82.599511 597.66949 82.25656 600.06078 c 0
 81.614637 604.53671 84.765721 609.57321 86.045866 611.59048 c 0
 88.88176 617.52591 86.620093 618.4117 89.773529 620.66035 c 0
 91.816764 622.11733 93.804 624.14649 95.576295 628.49214 c 0
 100.21705 639.87125 103.46723 666.26019 108.27488 678.05844 c 0
 109.47966 681.01503 111.81713 682.06258 114.38747 682.72806 c 0
 115.0383 689.14457 124.29838 702.00015 124.12362 704.79121 c 0
 123.71296 709.19344 123.52524 713.22028 124.50525 715.26449 c 0
 128.52126 723.64149 132.73658 731.72225 137.22372 739.30996 c 0
 138.74164 741.87675 141.62336 742.78788 144.91772 743.1805 c 0
 149.76413 747.7788 160.78189 762.91173 160.67436 765.04976 c 0
 160.42981 768.07248 160.58716 770.59697 161.82637 771.80614 c 0
 163.60873 773.54533 166.39458 774.43029 169.46805 775.02919 c 0
 171.25796 782.3089 183.3697 788.79441 183.49366 792.12222 c 0
 183.45716 795.08872 186.86257 797.81636 187.4709 799.7276 c 0
 191.7674 807.79339 203.71042 813.25594 210.53932 814.24979 c 0
 226.53821 817.61066 258.34131 818.73549 271.76756 816.18152 c 0
 290.91272 812.53968 302.21499 809.32974 321.69962 805.89728 c 1
 357.20811 806.96501 395.57041 802.70012 429.83167 803.80654 c 0
 460.89414 804.80965 490.23752 800.87358 510.38465 809.46077 c 0
 521.41817 817.65412 521.83475 824.72536 524.17316 832.14294 c 0
 529.65883 843.49083 540.46884 857.39618 548.87602 865.32348 c 0
 565.94861 873.91124 586.91598 889.35335 607.12529 889.39263 c 0
 630.17039 887.57042 646.09707 894.50844 661.36572 875.55701 c 0
 666.87074 863.65201 675.6926 873.09782 681.8115 862.4438 c 0
 688.23785 851.02763 674.14858 835.44208 684.89996 816.03513 c 0
 689.24298 808.01004 690.93399 802.53877 690.65729 792.62993 c 0
 689.96066 778.7013 692.41762 727.0678 691.61467 713.38242 c 0
 691.20221 706.10619 691.31696 700.21061 692.00467 695.09283 c 0
 693.66079 689.09886 703.6184 685.74714 706.19111 677.72681 c 0
 709.89965 666.16559 704.40588 655.63103 707.84741 644.99257 c 0
 708.69407 642.37537 707.09666 632.24864 708.93529 629.91585 c 0
 710.3679 628.0982 710.07178 624.29125 709.33681 620.70312 c 0
 708.66733 617.43473 709.10499 615.32873 708.68212 614.09228 c 0
 709.49097 611.68737 710.75208 609.61987 713.92649 608.9006 c 0
 718.09941 607.95509 723.03617 607.64441 725.37142 605.80853 c 0
 728.20301 603.58244 727.66189 599.37767 727.7145 595.15689 c 0
 727.7431 592.86429 730.72108 590.56697 731.73563 588.57945 c 0
 733.0165 586.07023 732.56315 583.56869 734.96334 581.07208 c 0
 737.78005 578.14222 737.23921 574.52613 738.72055 571.60489 c 0
 740.8545 567.39667 736.03368 571.59449 744.16509 561.74897 c 0
 746.37515 559.07301 746.57915 554.87674 747.95013 551.42509 c 0
 749.85218 546.63639 756.36429 539.74245 757.6708 534.88546 c 0
 759.61029 525.92574 765.85015 517.04982 766.72882 507.5961 c 0
 768.54686 494.5669 761.53406 482.23417 764.47897 470.43507 c 0
 766.49058 462.3502 767.72869 454.54858 773.02397 448.50217 c 0
 775.61689 445.52629 777.93032 442.47543 779.23194 438.01637 c 0
 785.9449 415.01937 783.31683 385.69977 781.89808 362.83049 c 0
 780.47377 339.87155 779.58048 305.52209 780.75978 276.59923 c 0
 781.74904 261.97068 783.42019 254.9121 779.41521 241.28249 c 0
 775.33203 221.70095 770.77776 220.44946 756.83491 206.44578 c 0
 750.91322 200.37198 743.55753 187.9338 731.76715 180.68893 c 0
 717.09286 171.67197 712.89269 171.32727 699.70503 169.2164 c 0
 689.29488 167.55012 666.32801 167.54714 659.89086 170.91854 c 0
 646.96555 179.29313 644.22672 177.7012 644.59352 183.90151 c 0
 643.46953 196.6705 644.15575 207.40114 646.10424 219.2275 c 0
 652.07185 235.05574 646.03954 245.61169 645.16718 260.73662 c 0
 644.00271 281.72594 662.17597 293.27259 663.49159 317.6603 c 0
 664.11657 329.24558 664.69367 340.7549 664.9115 351.75177 c 0
 665.22533 367.59515 656.91502 381.1309 651.23295 392.97747 c 0
 649.56642 396.45203 649.51309 403.24909 648.58264 406.44864 c 0
 647.62367 409.20849 647.26642 413.39279 647.65597 421.79414 c 0
 647.90393 427.14167 647.89246 432.79276 646.94357 437.67902 c 0
 645.82137 443.45777 642.62807 449.70065 641.61857 452.00119 c 0
 639.16934 457.58268 635.12946 455.19989 632.36972 461.73013 c 0
 630.26915 466.70059 626.25618 467.56247 625.56254 473.69122 c 0
 624.97143 478.914 624.27249 484.43594 622.41128 490.05012 c 0
 620.72518 494.48354 617.17872 498.42734 613.91923 502.30814 c 0
 610.34678 506.56154 609.89328 509.35215 609.83736 514.01588 c 0
 609.79436 518.18351 607.1042 524.08231 607.13724 528.56742 c 0
 607.20124 537.25606 607.07374 545.84499 605.4601 551.63984 c 0
 603.80942 557.56771 604.86016 563.50716 604.76899 568.79056 c 0
 604.63437 576.59176 603.64722 582.96261 601.14017 585.75385 c 0
 597.97411 589.25764 587.69922 590.56429 579.89245 589.64685 c 0
 574.51504 589.0149 568.95696 588.31491 566.8286 588.89808 c 0
 561.99642 590.15765 558.67525 589.06109 552.93005 589.79084 c 0
 538.12714 591.67107 492.06895 590.59078 459.35523 586.22384 c 0
 454.83755 585.62078 452.57018 582.33601 447.88701 583.32026 c 0
 444.19719 584.66709 438.72364 582.14698 435.36906 578.70114 c 0
 431.6027 574.83231 427.19106 573.95788 423.15521 571.9179 c 0
 418.41926 571.25658 417.91996 566.95033 415.56652 565.8634 c 0
 411.18827 563.8413 411.38157 564.42699 409.88048 560.22528 c 0
 409.32427 558.66838 404.5645 556.9303 403.74627 554.98766 c 0
 400.93977 549.24971 393.87755 549.0508 393.53747 540.45574 c 0
 393.04075 527.31697 389.26352 489.97408 391.59867 457.45731 c 1
 400.89655 445.77606 405.08664 439.00844 405.56356 425.93645 c 0
 408.66898 415.4765 410.11044 404.16187 412.06176 394.17135 c 0
 412.82207 384.81251 415.1308 375.51513 417.69984 367.25834 c 0
 422.91514 354.38827 423.06802 341.50213 424.90998 328.93553 c 0
 425.63028 324.01217 426.27487 319.17749 426.03392 314.28159 c 0
 425.72726 308.64749 424.52363 302.95391 423.16289 297.58555 c 0
 421.30069 292.1562 428.45779 289.19956 427.82608 284.35369 c 0
 426.30213 272.66337 425.80478 260.00654 428.21171 247.72837 c 0
 430.391 236.66991 426.56931 225.90127 426.72921 216.42868 c 0
 426.96873 197.78172 424.9152 192.75726 419.56857 180.87179 c 0
 415.3031 171.3898 412.02216 162.44457 412.27769 160.99341 c 0
 411.85783 158.51909 410.27145 155.36055 408.15879 152.16196 c 0
 406.42639 149.53951 404.34005 146.88946 402.25291 144.5681 c 0
 399.522 141.53068 396.78972 139.0552 394.84697 137.93738 c 0
 371.41145 125.62216 367.32785 146.36542 339.10249 142.59503 c 0
 327.21009 141.27036 321.23883 143.92674 317.73201 148.91001 c 0
 312.77112 155.95955 312.74209 167.66569 307.85912 179.34556 c 0
EndSplineSet
Validated: 524833
EndChar

StartChar: "+BdUFtwXQBdUFvAAA"
Encoding: 9 1493 9
Width: 700
Flags: W
LayerCount: 2
Fore
SplineSet
365.30439 872.56343 m 1
 386.64915 868.77725 381.50813 837.58712 386.10623 815.68138 c 0
 387.42534 808.20738 390.54329 799.05406 394.66447 794.41271 c 0
 401.26439 786.97991 400.09195 790.99069 404.44448 781.35257 c 0
 408.78851 772.02401 404.51698 760.7144 407.71728 751.44946 c 0
 412.16222 740.28117 410.75697 726.51301 404.90247 718.55218 c 0
 395.51184 703.18663 414.81797 704.78231 407.90673 689.18822 c 0
 400.77965 673.25421 411.58333 674.22603 405.1359 659.26958 c 0
 400.92427 649.49995 405.78026 633.47094 408.78354 626.81162 c 0
 411.67474 621.48653 402.14491 608.92817 406.30768 601.84261 c 0
 409.74337 590.18199 408.52953 575.81539 415.4945 566.03226 c 0
 421.78329 557.55624 419.59103 563.04447 425.96309 553.99266 c 0
 430.15002 548.56584 434.26023 541.71643 437.73286 534.36615 c 0
 442.81117 523.61721 446.52598 511.79715 447.1232 501.78861 c 0
 447.7644 476.88543 445.34066 462.78178 446.89768 438.70716 c 0
 446.84288 430.11059 446.66481 416.70614 447.04409 408.35958 c 0
 447.50925 398.12321 448.07512 388.11797 448.18804 378.44959 c 0
 448.28714 367.24312 447.06622 356.39847 447.82861 345.13502 c 0
 448.56037 334.32415 447.81531 321.68572 447.60883 311.91739 c 0
 447.19771 302.08476 448.41135 291.87975 448.51313 283.47511 c 0
 448.63751 273.20378 447.15969 262.78872 447.76397 253.06485 c 0
 448.05908 248.31618 452.68129 238.54661 453.41389 233.24013 c 0
 455.18326 217.43466 444.11532 207.38797 446.22419 199.14758 c 0
 451.86218 177.11715 452.6856 170.34397 432.20444 158.4287 c 0
 425.17326 154.28969 417.921 149.16435 412.77127 144.32641 c 0
 406.07196 138.0331 395.62394 131.31883 389.55337 129.40603 c 0
 371.99401 130.34805 338.31039 143.35426 335.38008 163.832 c 0
 334.22831 172.27962 319.22285 204.49789 318.56504 215.4873 c 0
 319.88349 253.32379 308.74285 228.92064 303.63507 263.11337 c 0
 302.35662 266.92451 303.67457 272.14253 303.2489 277.0795 c 0
 301.82296 293.61722 303.68838 314.78379 303.10878 329.27305 c 0
 303.04258 332.80687 303.50614 336.89834 302.64082 340.22558 c 0
 300.45491 350.47155 305.71191 364.38651 302.88298 372.36397 c 0
 299.12128 381.51943 305.63131 378.68589 302.93348 387.99062 c 0
 302.06747 390.97742 304.97811 399.50856 302.93348 402.22252 c 0
 298.89706 406.37689 302.2833 410.52008 302.65317 414.59959 c 0
 303.13249 419.88193 303.00897 423.39746 302.71117 428.34827 c 0
 305.27664 433.52897 303.54767 437.39617 302.38957 441.68095 c 0
 300.41615 445.9474 299.69405 469.67995 293.24882 478.6515 c 0
 284.08408 491.40833 262.95524 500.37847 256.68739 500.80604 c 0
 249.21557 501.52033 243.93543 501.55069 241.186 501.04954 c 0
 235.55385 501.06064 228.03116 499.63414 222.4661 502.08174 c 0
 218.15057 503.97978 216.05026 508.30709 212.18118 510.30674 c 0
 207.48258 512.76697 205.318 515.29143 199.98738 516.62113 c 0
 198.07513 517.09804 184.15107 517.03281 182.19492 517.30268 c 0
 175.297 515.35187 177.8463 522.72324 173.64954 523.43497 c 0
 165.17232 526.03448 168.31783 533.35449 165.30034 542.82435 c 0
 162.12579 552.78671 161.70043 564.34216 160.23255 574.03483 c 0
 159.32393 580.0343 156.61406 585.5308 156.82707 588.85966 c 0
 157.16154 593.90386 158.03192 596.76572 157.45516 600.32368 c 0
 154.68367 606.64555 157.48796 612.05486 156.5802 617.77783 c 0
 155.75461 622.87584 156.5103 628.1686 157.52464 630.35985 c 0
 160.47089 638.16311 158.40288 644.91216 161.00701 652.4713 c 0
 174.26256 690.94828 184.35556 726.90185 204.19879 766.83622 c 0
 218.91217 790.23803 210.39418 794.44047 221.09955 815.74411 c 1
 229.83083 846.93237 238.86362 866.9991 255.21878 876.37156 c 0
 263.92482 879.41478 284.96137 869.16051 292.10459 877.58792 c 0
 303.51692 883.82668 303.84746 879.46697 314.31709 877.1127 c 0
 329.43317 871.09135 336.46469 876.25501 347.58941 878.18172 c 0
 352.77936 878.86264 361.54287 878.69233 365.30439 872.56343 c 1
EndSplineSet
Validated: 524833
EndChar

StartChar: "+BdYFtwXZ"
Encoding: 10 1494 10
Width: 800
Flags: W
LayerCount: 2
Fore
SplineSet
350.91193 149.87768 m 1
 331.34154 153.62838 315.62611 167.12588 308.83582 172.70408 c 0
 303.79546 176.99878 305.14322 188.80852 312.23252 202.4674 c 0
 315.87653 209.48817 315.43886 214.90939 315.35456 220.01007 c 0
 313.19741 232.41398 311.68974 241.7225 309.66086 254.02921 c 0
 302.24715 303.21548 287.02108 347.69843 268.99482 390.61333 c 0
 254.67735 415.71933 247.22739 445.95466 237.705 472.59433 c 0
 233.30426 490.89233 220.82745 503.67135 212.9337 518.62268 c 0
 204.8097 535.40721 200.38676 551.36329 194.24873 567.81186 c 0
 181.87027 600.91909 166.9771 633.23027 152.21177 659.35891 c 0
 145.17417 670.50505 133.61582 674.69431 139.3789 684.24404 c 0
 180.75362 750.48718 233.81368 820.54184 282.818 872.08052 c 0
 284.65652 875.01297 286.9251 874.72952 289.54909 875.52748 c 0
 292.13844 876.33022 294.37184 877.85651 296.8147 879.1696 c 0
 298.15678 879.89167 299.5587 880.65957 300.88619 881.41521 c 0
 302.54164 881.9975 304.17382 883.2872 305.6757 884.56213 c 0
 308.10922 887.05953 310.82749 887.74798 313.31839 886.40352 c 0
 358.2969 862.0152 395.70158 833.39626 405.94552 809.90227 c 1
 415.52497 771.87289 441.14737 733.44724 444.94152 697.45617 c 0
 445.43936 688.9623 444.80886 678.94426 442.93624 665.36503 c 0
 441.5475 655.77145 439.40151 651.62054 433.33373 646.79083 c 0
 429.96481 644.89069 418.72165 627.27001 418.06638 627.52099 c 1
 404.10561 580.39935 411.54356 478.74019 420.08679 432.35271 c 1
 438.85144 364.09127 461.94391 333.5394 484.21304 261.44969 c 0
 486.024 255.48211 488.13246 249.06602 488.8983 247.1917 c 0
 485.07648 198.21418 396.20339 127.03078 350.91021 149.87758 c 1
 350.91193 149.87768 l 1
EndSplineSet
Validated: 524833
EndChar

StartChar: "+BdcFtQXq"
Encoding: 11 1495 11
Width: 900
Flags: W
LayerCount: 2
Fore
SplineSet
205.59993 312.27628 m 2
 204.28573 331.90336 211.50623 334.92754 209.80743 353.3683 c 0
 208.33333 369.58505 207.56023 385.31608 209.06013 399.72545 c 0
 210.38323 411.72944 210.96993 423.59924 210.88533 433.89866 c 0
 208.67703 466.00434 183.14384 511.20402 173.49514 541.97152 c 1
 156.16304 577.68616 168.78953 621.13266 161.74473 679.29232 c 1
 152.62553 711.51585 156.35766 763.43851 161.68163 802.35146 c 0
 165.95293 833.57063 170.4607 853.16266 187.3768 874.25921 c 0
 199.4071 889.26262 218.033 902.01897 236.5833 910.87583 c 0
 248.3976 916.51654 257.7078 921.40007 273.2633 921.60867 c 0
 282.0636 921.0017 320.32026 924.00394 326.34356 904.64887 c 0
 336.5454 871.94846 323.45466 808.10991 332.56175 797.68785 c 0
 345.55136 786.13075 350.10482 792.04669 366.83251 792.15345 c 0
 373.70217 792.79803 411.24896 794.54731 417.41473 793.59789 c 0
 435.08461 794.80713 462.98847 787.68379 478.35497 796.59731 c 1
 487.25071 813.72535 478.78529 828.64257 481.91758 842.36479 c 0
 484.55919 849.14993 486.3645 855.29301 488.6439 861.00242 c 0
 491.12571 868.7246 495.31251 873.59033 499.89807 877.93956 c 0
 504.41006 882.21901 509.30813 885.9984 513.34792 891.50684 c 0
 516.57289 895.93294 519.33338 900.35015 522.63321 903.0009 c 0
 527.93621 907.09489 542.7437 917.67672 550.62944 918.91678 c 0
 568.35923 921.70485 580.10992 922.55384 590.07526 920.53918 c 0
 600.5978 918.41193 611.90419 913.09195 623.38352 903.49073 c 0
 630.00575 900.77262 633.71404 895.50287 639.23559 892.3945 c 0
 643.6438 890.81475 645.81074 888.62729 647.82858 885.50363 c 0
 646.54025 873.07961 644.11936 839.28195 644.58579 826.42447 c 0
 645.18774 809.83129 645.97802 793.46021 643.67105 778.81618 c 0
 640.45774 759.07955 642.45414 735.22258 641.8553 717.51661 c 0
 641.24717 684.0934 641.51638 686.62292 647.49266 655.16969 c 0
 652.54817 628.56248 643.45144 580.06798 648.60466 568.76351 c 0
 658.66113 546.70291 669.47066 529.13883 672.62582 511.08318 c 1
 687.65445 483.09769 683.50447 447.94377 686.72418 417.67457 c 0
 686.21367 392.68677 682.14603 363.76405 677.73862 341.00683 c 0
 670.58431 306.20064 644.0434 309.76051 598.17851 303.39364 c 0
 568.71195 299.30316 561.08456 304.04681 546.21882 314.3326 c 0
 528.39023 326.66844 531.19893 354.34833 530.14794 403.27613 c 0
 529.69484 424.36976 539.56519 482.03938 529.60262 507.42051 c 0
 521.91909 526.99548 518.15114 524.44669 513.95932 532.47571 c 0
 511.57894 545.70385 512.07121 573.97649 510.53089 586.60002 c 0
 508.82722 600.56235 506.33393 598.7883 500.16759 611.55515 c 1
 492.61287 617.04255 486.66423 622.54074 482.8649 625.88995 c 0
 476.46258 631.53375 473.6117 633.62704 460.86242 637.8843 c 1
 423.01176 637.38423 382.64485 634.45017 347.76868 635.6116 c 0
 335.03746 636.49266 335.56659 640.65877 331.89104 636.15275 c 0
 329.11503 632.26307 324.4539 619.70606 324.0844 611.30614 c 0
 322.81275 582.39782 339.75417 536.23451 344.29107 485.55245 c 1
 342.05348 422.31185 349.66468 349.67504 332.67818 306.75289 c 1
 331.38619 282.51929 308.0708 286.02632 300.156 278.60537 c 1
 290.2445 255.5979 301.7911 251.36976 272.7162 252.68202 c 0
 265.4606 253.01861 257.7441 253.57787 250.7492 254.04782 c 0
 227.1943 251.69058 233.4301 263.62831 226.0276 277.94565 c 0
 220.2649 288.27267 207.5572 293.5403 208.2328 297.62949 c 2
 205.59993 312.27628 l 2
EndSplineSet
Validated: 524833
EndChar

StartChar: "+BdgFtQXq"
Encoding: 12 1496 12
Width: 1000
Flags: W
LayerCount: 2
Fore
SplineSet
297.52968 200.12128 m 1
 255.7991 307.69589 217.45725 414.37627 195.56143 469.89333 c 0
 177.34852 509.64865 164.64011 548.05751 149.1121 582.97508 c 0
 144.82567 592.90475 141.98712 603.81114 138.57541 613.49458 c 0
 124.88419 651.35259 132.3738 696.68072 136.20157 737.76287 c 0
 137.4703 741.94785 146.55925 757.70286 148.52517 757.95689 c 0
 154.6689 760.55782 175.73634 775.84039 186.79608 776.41793 c 0
 192.3548 777.12208 193.5078 774.39977 196.72402 772.05324 c 0
 197.66582 771.53072 199.70831 770.33658 201.61052 769.43018 c 0
 205.68573 764.04749 211.20394 765.62032 215.10665 761.53264 c 0
 243.77364 731.41729 338.8719 660.49269 341.05359 642.51287 c 0
 344.64955 613.62218 348.75202 583.15912 348.70188 557.76287 c 1
 342.96078 546.9284 327.4108 539.87479 319.78 529.75096 c 0
 316.79718 525.63678 313.48065 522.76287 308.92048 522.76287 c 1
 308.53398 515.10915 l 1
 321.72488 446.60963 340.19547 382.25181 358.44398 335.93665 c 0
 368.81358 309.61835 373.13433 287.79778 391.29137 277.66884 c 0
 407.96358 268.36822 431.47558 279.48296 457.45201 285.06993 c 0
 500.99087 298.508 539.89588 312.84693 581.99521 329.19098 c 0
 621.51531 344.98083 653.81008 354.86281 693.25272 364.60028 c 0
 712.25509 369.88473 744.1574 380.58471 757.54441 395.04813 c 0
 756.71292 399.67259 760.06173 418.25188 759.70219 419.76287 c 0
 739.26982 461.71501 702.76151 517.37663 690.82785 561.1556 c 1
 691.30803 579.77032 695.9014 593.04768 694.25048 612.09091 c 1
 675.56081 645.78079 597.4941 654.52148 562.70219 654.76287 c 1
 542.0085 625.17451 516.82481 595.18608 497.34313 569.71692 c 0
 494.32154 565.57902 491.50845 561.76384 490.74248 558.45643 c 1
 492.97286 558.45643 494.16289 557.76287 496.39327 557.76287 c 2
 497.08288 535.98783 l 2
 497.46216 524.01155 497.4697 511.63655 497.09968 508.48783 c 2
 496.42678 502.76287 l 1
 472.06446 502.76287 l 1
 435.55302 497.71891 444.93304 532.00299 410.95214 529.9554 c 0
 409.66104 528.36872 408.71129 527.10238 407.97196 526.0962 c 0
 406.19515 523.05108 404.25171 522.32067 401.53753 522.58582 c 0
 400.05565 522.73175 397.97229 522.94661 394.88485 523.04529 c 0
 392.66299 522.99939 392.5684 523.49454 392.06026 523.95687 c 0
 391.41685 524.54229 390.70214 525.37098 390.70214 528.25006 c 2
 390.70214 543.92961 l 2
 391.49525 552.20956 394.76187 556.19265 399.03901 562.43865 c 0
 405.44402 571.79202 414.11511 582.56386 420.13937 591.13487 c 0
 431.7083 607.59458 447.87187 621.65845 463.88873 638.26634 c 0
 478.80964 653.73785 493.21433 671.54679 513.91246 692.13919 c 0
 527.57085 707.57294 556.16876 748.08093 575.51126 750.95604 c 0
 578.86891 751.23518 579.23043 751.55631 579.5155 754.51288 c 2
 579.82886 757.76288 l 1
 640.72315 754.9687 635.62793 757.7629 685.70214 757.76287 c 1
 685.70214 754.82037 l 2
 685.70214 752.0735 685.98471 751.85742 689.95214 751.57037 c 0
 701.26696 728.33413 727.9985 710.00824 741.5928 688.31708 c 0
 746.87339 679.89133 769.49909 661.77121 774.66301 653.29787 c 0
 787.56927 632.12032 800.93671 612.61226 807.97214 592.58667 c 0
 819.57598 559.55759 822.3067 526.31384 838.96047 490.65369 c 0
 850.03874 466.93218 867.90338 443.31051 873.3928 418.00777 c 0
 873.56071 402.96428 872.0121 390.4562 868.57494 378.73439 c 0
 856.9094 347.54634 831.79359 304.60375 802.45176 295.47426 c 0
 799.01426 295.16362 780.67676 295.09188 761.70176 295.31483 c 0
 651.69707 298.30308 547.38133 246.4502 419.77284 193.95983 c 1
 376.09016 180.86067 320.19527 161.51822 297.52968 200.12128 c 1
EndSplineSet
Validated: 524833
EndChar

StartChar: "+BdkF1QW5BdMA"
Encoding: 13 1497 13
Width: 700
Flags: W
LayerCount: 2
Fore
SplineSet
200.59586 159.73819 m 0
 192.1392 203.43922 210.85811 211.00789 211.93811 242.4102 c 0
 211.91871 263.60134 211.61817 304.79493 211.86511 324.6084 c 0
 211.98085 334.94128 208.3957 356.40839 209.39647 363.96139 c 0
 211.11909 382.90007 210.12624 403.60632 204.16138 417.93707 c 0
 197.83753 432.95971 187.71179 435.75056 182.16375 434.67497 c 0
 172.24895 432.75283 140.04953 433.7346 133.85978 439.49434 c 1
 122.49135 442.03966 116.53885 462.70321 111.26001 471.63077 c 0
 107.93466 475.78652 108.1242 477.43342 107.82594 478.92276 c 0
 107.43072 483.86555 106.51908 487.0133 106.94742 491.86134 c 0
 107.3608 496.62109 108.70962 501.95753 108.13885 506.06785 c 0
 107.9228 525.72154 122.51951 560.14153 128.08913 577.295 c 0
 137.64432 606.66231 147.39037 625.30766 160.66238 657.90155 c 0
 166.14223 671.27325 174.02622 681.00187 181.09069 693.15211 c 0
 188.6336 706.02236 196.66342 714.96784 207.32812 724.07303 c 0
 216.21478 731.50855 226.09822 735.5671 241.07454 737.20346 c 0
 251.86699 739.21821 260.01051 737.84874 269.04755 731.31419 c 0
 275.83767 726.00195 285.18206 720.29826 281.87702 707.40372 c 0
 280.94347 703.94513 278.13865 700.48774 279.02916 697.79716 c 0
 280.61829 684.21527 287.26856 668.19215 291.77255 656.47628 c 0
 293.70943 651.38196 295.42781 640.68784 297.42031 635.1756 c 0
 302.2937 622.36527 302.53749 609.15897 297.88517 598.07774 c 0
 293.91273 588.73589 294.51656 588.55237 289.55699 576.31628 c 0
 284.74092 564.4342 286.72073 562.2765 284.6536 549.22928 c 0
 281.47506 529.16736 274.70954 540.34287 275.56362 520.3981 c 0
 276.36196 501.75483 271.34027 504.27026 275.32473 489.31676 c 0
 276.56982 484.64396 275.88918 468.86296 280.14238 462.27071 c 0
 286.09066 448.79662 282.22151 435.58448 280.99972 422.04824 c 0
 280.4786 416.27441 280.43909 410.44161 281.84862 404.50438 c 0
 283.14766 399.18477 278.88342 389.70447 279.88486 388.2537 c 0
 282.08723 383.923 282.60274 373.19429 281.60394 369.9346 c 0
 280.38869 363.70711 283.57945 347.74022 284.08327 341.2838 c 0
 284.10537 336.00681 284.1908 330.42194 284.30093 324.64565 c 0
 284.79517 298.73679 286.48497 263.57029 284.47786 240.47199 c 0
 285.43532 227.94308 284.05194 228.90746 281.96157 223.60068 c 0
 273.13669 207.59856 268.20037 179.0734 259.31322 164.42006 c 0
 252.75995 154.08921 245.8838 152.80781 237.91334 153.36508 c 0
 229.19116 156.30092 203.43519 152.1565 200.59586 159.73819 c 0
EndSplineSet
Validated: 524833
EndChar

StartChar: "+BdsFtwW8BeMA"
Encoding: 14 1498 14
Width: 900
Flags: W
LayerCount: 2
Fore
SplineSet
417.72179 500.15387 m 1
 413.25843 525.9036 417.11458 550.5478 417.29418 574.65413 c 0
 415.86945 595.01139 409.24266 610.88533 408.94851 629.83545 c 0
 406.56871 645.0862 401.60171 660.65305 396.19051 675.2341 c 0
 390.98729 689.25465 388.84118 698.20237 384.72183 709.24246 c 0
 379.0042 718.5251 370.49133 728.83277 362.30552 731.68344 c 0
 348.90284 736.31133 334.57499 738.73406 320.19746 739.95984 c 0
 297.25326 741.91599 274.18256 740.82388 254.54351 740.78103 c 0
 230.79089 737.97657 211.46893 740.73473 193.57816 748.05155 c 0
 175.90617 755.2789 155.46921 766.26055 137.69926 781.41601 c 1
 124.30669 803.24876 128.91812 818.14496 136.11337 835.66768 c 0
 140.66706 846.94002 149.66571 855.03071 157.95752 862.50137 c 0
 169.52774 872.54411 180.92903 879.78853 193.08132 884.45998 c 0
 214.32275 892.56266 236.52117 890.66223 257.40042 889.59196 c 0
 268.12648 889.01132 278.27027 887.6592 286.03288 883.97739 c 0
 289.91647 882.10557 289.86474 874.39413 296.46922 873.10224 c 0
 299.08476 871.02507 305.23443 870.44061 310.77949 869.688 c 0
 317.44233 869.7183 320.22733 866.10398 324.23294 861.91111 c 0
 334.1439 851.57275 335.95443 855.7183 353.74983 853.93151 c 0
 371.29573 852.1448 387.67018 848.05153 404.79086 845.47779 c 0
 414.03368 843.01565 419.3587 848.26742 425.44261 853.50961 c 0
 432.39835 859.89491 438.88085 866.04379 446.94988 869.73335 c 0
 458.20281 873.95907 468.60465 877.21158 479.32947 878.68107 c 0
 491.63037 880.35898 503.9956 880.6905 513.74129 878.36119 c 0
 524.85683 874.17102 536.93843 874.73923 545.78242 868.09774 c 0
 556.99635 859.60832 572.35996 845.4592 573.33818 837.18611 c 0
 573.99283 828.30734 574.29791 818.9004 574.43764 809.91789 c 0
 576.12804 795.11412 573.19493 785.23472 569.78193 772.01399 c 0
 566.3189 760.76849 567.18386 750.60329 557.9153 745.86748 c 0
 549.34146 743.38666 541.29952 735.52583 532.71004 730.4684 c 0
 526.10906 727.69869 524.51489 723.47928 523.52654 719.25479 c 2
 521.13739 708.91149 l 2
 518.42444 703.80283 521.54446 702.45989 523.27373 699.28533 c 0
 526.32672 693.36209 525.1966 679.71621 528.03579 670.1448 c 0
 539.78242 630.54528 546.8937 544.33804 545.97634 473.28985 c 0
 547.87026 462.32354 546.59465 451.16549 547.39558 441.23041 c 0
 549.46326 418.17208 550.21678 387.56832 546.43023 357.56049 c 0
 547.36756 351.00736 545.45017 343.61962 544.39899 338.40043 c 0
 538.67788 307.81089 526.03351 280.49946 523.43359 263.08843 c 1
 512.35371 236.29313 504.71218 176.0495 498.98278 160.54824 c 0
 494.91003 145.34244 487.6111 135.44987 466.49471 132.12067 c 0
 456.79858 130.59199 429.14777 131.8614 423.06456 137.3487 c 0
 416.18449 144.3645 418.41472 149.18198 417.11727 161.81874 c 0
 413.35664 198.44709 416.25012 250.676 416.82709 272.0585 c 0
 413.1113 351.63629 418.2364 431.84962 417.72179 500.15387 c 1
EndSplineSet
Validated: 524833
EndChar

StartChar: "+BdsFtwW8BeMA +BdcF5AXZBegF1AAA"
Encoding: 15 1499 15
Width: 1000
Flags: W
LayerCount: 2
Fore
SplineSet
166.88833 130.59487 m 2
 160.45083 130.98696 155.18363 131.57436 151.79033 132.20118 c 0
 145.58953 133.58752 146.06343 140.57576 142.77513 144.81312 c 0
 138.57633 149.28057 137.50733 152.31795 138.39723 155.4733 c 0
 139.11483 158.0176 141.10623 160.63861 143.75743 164.14794 c 0
 167.46153 191.58028 189.56083 219.84663 213.56053 245.24544 c 0
 221.36573 254.09876 223.20133 253.54946 233.70183 253.89749 c 0
 273.78633 255.21752 313.63243 254.19226 352.64493 253.87099 c 0
 368.33853 253.74177 391.26803 239.20621 406.65313 240.41727 c 0
 439.94283 243.03773 457.87793 267.24244 483.89643 277.42244 c 1
 500.66383 288.65592 499.35023 295.31129 519.54993 295.53353 c 2
 535.44403 295.7084 l 2
 537.75293 295.47604 539.15153 295.697 540.99403 296.83206 c 2
 548.93613 301.72478 l 2
 551.71743 303.88402 553.23383 304.74586 556.10263 304.98782 c 0
 561.07083 305.5227 562.33963 308.62692 561.51263 312.53785 c 0
 559.10713 323.01095 559.61683 334.68863 558.99673 344.55455 c 0
 556.11913 387.97183 550.04693 427.53697 539.53493 464.20259 c 0
 535.78713 477.27473 521.03303 489.97835 516.10023 502.35656 c 0
 502.58533 536.26987 500.38093 567.12182 476.38613 597.03809 c 0
 468.55393 606.72393 445.44773 617.51573 430.86263 628.77396 c 0
 415.31373 640.77621 407.93973 652.97054 388.66703 653.63114 c 0
 353.36083 661.47383 338.22883 635.92115 306.63333 624.27605 c 0
 264.20753 611.19623 216.10003 608.45366 176.30553 605.87022 c 0
 158.27343 604.73635 137.97943 604.52444 121.79403 607.3675 c 0
 96.937733 611.91842 94.762333 630.61515 93.003233 662.54766 c 0
 91.890733 683.57527 101.43213 702.54428 101.96223 726.06781 c 0
 102.29493 740.83405 92.760433 760.57735 94.498833 773.83175 c 0
 98.021233 800.68763 107.61253 806.02753 115.81573 818.52927 c 0
 122.43203 828.10942 128.27713 837.09364 137.16623 844.32521 c 0
 146.41563 851.84975 156.60943 857.9506 167.15283 862.31071 c 0
 181.63173 867.25114 194.13053 870.28398 205.43733 868.92848 c 0
 216.11373 867.64854 225.72723 862.45591 234.94113 851.26203 c 0
 242.02513 842.5215 247.79813 832.20321 252.98233 823.84537 c 0
 259.91573 813.78326 268.92443 804.45986 274.62193 801.80481 c 0
 281.61003 801.62684 288.95263 800.34579 295.62163 797.90221 c 0
 304.26203 794.73629 311.77183 789.61892 315.91473 782.42083 c 0
 318.58023 777.78328 321.56163 772.56823 326.63463 769.99459 c 0
 331.13513 767.71138 336.64523 770.03739 341.68953 772.19369 c 0
 344.94183 774.11788 347.30473 774.26961 350.98773 774.30719 c 0
 368.78133 774.4669 385.24973 773.84087 401.77403 774.01503 c 0
 405.97483 773.44316 407.50663 775.3609 409.84523 778.00813 c 0
 442.33613 811.86302 468.45773 855.26796 501.85493 877.14457 c 0
 524.22173 888.54382 536.35053 897.87393 558.93483 890.71606 c 0
 573.54503 886.77411 591.63553 871.66486 597.80243 859.26485 c 0
 601.08623 857.08596 602.04023 845.66437 602.98493 844.65102 c 2
 604.21933 820.79817 l 2
 604.89813 807.6791 605.45653 789.27834 605.45993 779.90757 c 2
 605.45993 768.50862 l 2
 604.91363 764.13899 606.24053 759.81936 607.59403 756.27272 c 0
 608.41883 754.12279 609.38463 751.86875 610.43683 749.58284 c 0
 614.49073 740.77585 619.82783 731.49574 623.33033 725.87359 c 0
 656.99853 682.90095 685.75803 635.38456 692.84513 583.02696 c 0
 693.41003 568.24198 693.42953 549.97853 692.88813 542.44153 c 0
 690.46613 525.70808 696.85103 522.49438 698.99873 508.43948 c 1
 721.04303 492.14774 730.83513 440.868 745.86703 413.03675 c 0
 750.41863 405.54927 750.34093 396.75224 751.12733 388.9196 c 0
 754.29483 357.24525 754.29223 330.63924 753.73813 315.85503 c 0
 753.90923 308.68928 753.07793 301.56231 748.39083 296.48765 c 0
 742.55033 290.2441 732.97443 285.63263 725.99073 278.79013 c 0
 714.82843 267.47797 702.36443 257.96134 692.79293 246.4909 c 0
 682.02373 233.40907 671.54213 218.40569 659.61413 210.52003 c 0
 637.77383 203.71795 607.81503 195.69848 586.76533 194.59302 c 0
 576.26643 194.12976 566.20353 193.84226 559.20613 189.29227 c 0
 553.63983 186.38769 550.59653 181.87142 547.02183 177.24086 c 0
 538.36583 166.04849 530.51223 158.51056 522.15183 150.65264 c 0
 514.21623 142.52274 514.69223 143.13551 503.15223 143.13551 c 2
 464.11763 143.13551 l 2
 449.01413 144.25599 437.94963 143.40644 428.11663 141.71654 c 0
 412.86783 137.53279 408.57933 134.7032 394.37693 130.18723 c 0
 387.86573 128.07439 382.08083 124.85746 375.39343 118.65127 c 0
 356.02353 95.25256 316.79493 102.94766 290.55373 101.80586 c 0
 262.50703 100.67836 243.74443 103.25566 218.50413 113.47676 c 0
 200.70053 121.19366 182.06473 123.85801 166.88343 130.59484 c 1
 166.88833 130.59487 l 2
EndSplineSet
Validated: 524833
EndChar

StartChar: "+BdwFtwXeBbAF0wAA"
Encoding: 16 1500 16
Width: 800
Flags: W
LayerCount: 2
Fore
SplineSet
387.40716 108.61111 m 1
 387.79277 121.73514 389.80166 139.69376 393.45878 151.84761 c 0
 398.97168 170.16864 404.14434 177.80019 406.33575 193.63108 c 0
 407.4315 201.92496 414.01672 210.04577 415.58656 222.57808 c 0
 416.28105 228.12234 415.39238 234.13447 413.8862 239.51902 c 0
 410.8283 254.12411 404.28118 255.40761 392.96246 254.27715 c 0
 380.46224 252.99698 370.25257 249.71523 358.73742 253.41224 c 0
 352.23884 255.6289 342.46773 255.07475 337.04453 255.21071 c 0
 331.92785 255.58028 332.24184 261.40663 326.7835 263.79525 c 0
 308.45618 271.82579 284.00705 298.40713 275.24395 308.46516 c 0
 264.04006 321.85849 259.71865 334.78491 258.12343 348.24244 c 0
 257.46043 355.39457 257.93682 362.74527 257.8793 371.75197 c 0
 257.8191 380.80205 255.74151 387.85605 255.54859 397.46839 c 0
 255.28421 403.64404 252.43035 409.6974 250.71602 415.88299 c 0
 230.9292 460.15957 224.74777 505.87144 207.77459 543.15839 c 1
 197.5547 586.01226 171.3935 617.69989 156.82652 658.28894 c 0
 155.07819 662.91632 146.17669 667.44057 144.92105 670.56745 c 0
 142.24604 677.22915 147.20137 681.29563 139.63748 692.8498 c 0
 129.20342 709.99083 125.22488 701.97061 119.26306 713.40296 c 0
 112.70665 725.39551 101.28344 749.11678 95.144449 761.76004 c 0
 91.032939 770.22788 98.291689 775.99259 90.510619 778.77417 c 0
 70.231709 785.56861 66.632259 808.31476 73.562229 830.04587 c 0
 75.820329 837.12691 70.159379 845.68754 73.468829 853.52734 c 0
 76.331549 860.30878 87.832339 866.55088 93.699079 870.82948 c 0
 106.34848 880.05461 116.05521 877.06312 118.7765 881.00701 c 0
 120.14606 882.99186 122.85694 891.32309 136.3837 900.65145 c 0
 149.73617 909.85962 169.06664 916.86257 179.28176 922.86879 c 0
 215.26842 944.02802 237.24196 931.1911 233.07208 909.80431 c 0
 228.48337 904.46891 260.4518 892.91867 259.37481 886.39433 c 0
 257.76244 876.629 262.11156 864.14373 264.16556 855.35961 c 0
 265.37804 844.82721 260.25826 833.10556 263.62885 818.56488 c 0
 265.85336 808.96797 258.86866 791.466 262.06805 780.62876 c 0
 276.19591 732.7748 273.03054 694.85726 282.55062 633.9837 c 0
 285.94268 596.73402 301.9348 556.03739 309.7476 529.99883 c 0
 313.07503 515.77285 317.10205 499.48538 319.88696 484.63373 c 0
 320.5344 481.18099 324.1386 474.62903 325.00959 471.37548 c 0
 327.42355 466.85942 323.97812 465.18379 326.19155 460.22624 c 0
 333.48497 443.8907 339.92254 426.41324 347.03832 416.06257 c 0
 356.88409 402.51373 369.50507 396.83487 367.65362 372.82776 c 0
 366.16704 356.6888 367.62092 356.52647 368.88241 353.03193 c 0
 376.38309 344.06862 384.7804 355.04901 394.77056 352.21644 c 0
 410.47786 347.76332 418.19572 353.72322 432.32225 351.78069 c 0
 442.76663 349.14383 444.64815 356.74681 449.63152 359.50683 c 0
 456.37184 365.60032 464.80026 358.96277 472.53961 361.29601 c 0
 482.28712 364.23433 500.10868 367.16081 509.77598 358.41728 c 0
 512.24713 356.08873 514.40298 353.24377 516.19422 349.80168 c 0
 520.90009 343.51716 519.44107 335.29464 520.12783 330.76794 c 0
 520.76619 326.55977 523.77825 317.50524 522.04443 313.61602 c 0
 519.89428 308.7927 526.74532 299.62468 522.77469 293.29981 c 0
 513.96391 279.45475 521.33287 263.12175 516.38247 246.10039 c 0
 513.01829 234.53311 492.48632 211.69932 489.31153 199.35413 c 0
 487.03516 190.5019 481.92804 180.6101 477.30371 173.16722 c 0
 470.27096 161.84742 475.2164 148.44435 469.92153 138.73946 c 0
 462.44612 125.03757 448.3765 103.84604 434.07 98.217124 c 0
 401.61475 87.039814 405.02946 79.332084 387.40716 108.61111 c 1
EndSplineSet
Validated: 524833
EndChar

StartChar: "+Bd4FtQXd +BdcF5AXZBegF1AAA"
Encoding: 17 1501 17
Width: 700
Flags: W
LayerCount: 2
Fore
SplineSet
305.16858 246.2627 m 0
 290.40604 358.59614 273.37091 480.15261 259.03027 584.04169 c 0
 258.62194 587.10709 257.00823 586.86758 257.02897 590.19891 c 0
 256.98467 591.90126 255.73044 594.89274 256.59291 597.90667 c 0
 257.59679 605.69706 258.9277 611.85764 251.98611 615.74556 c 0
 250.33229 616.6061 249.17958 617.83004 247.49119 619.15131 c 0
 245.98579 620.74357 245.20642 620.89028 243.01124 621.26233 c 0
 230.83764 621.05217 211.46145 625.68728 199.19602 627.08083 c 0
 196.18679 627.42272 193.60558 627.5695 191.66376 627.40173 c 0
 189.11174 626.51907 186.5804 625.62078 184.06687 624.71611 c 0
 166.97406 618.56408 150.70532 612.11738 134.36392 608.29012 c 0
 131.28429 607.56885 130.92133 606.94061 127.83054 606.42491 c 0
 125.16728 606.00892 124.75122 605.18155 120.33013 605.49595 c 0
 111.07531 606.1709 102.72507 599.76418 93.101955 603.1509 c 0
 88.171565 606.83342 82.999635 607.23563 82.094035 607.53741 c 0
 77.925665 610.03776 74.833485 609.09702 71.923865 612.91693 c 0
 69.613325 615.93368 68.083465 621.92916 67.083255 627.34676 c 0
 65.245125 633.04646 66.558445 638.54585 67.725725 643.51943 c 0
 70.937605 657.20315 75.753385 677.50045 80.638175 692.70894 c 0
 86.393195 704.746 88.571895 717.98914 93.793195 729.45753 c 0
 98.993485 740.10176 100.95501 747.38814 106.22893 756.87212 c 0
 109.88574 762.94034 113.63788 768.6258 119.38063 772.956 c 0
 121.93977 775.45329 125.18729 778.21719 128.13386 780.07018 c 0
 133.1397 783.52899 140.16899 783.6887 144.63802 786.63307 c 0
 147.89586 788.37862 150.76282 790.31131 153.72541 791.97757 c 0
 158.28764 794.50769 164.00988 796.43966 168.71735 795.73042 c 0
 177.45518 795.12463 185.11818 799.18433 192.47371 795.75222 c 0
 193.28239 795.35868 193.99708 794.8172 194.67193 794.05457 c 0
 203.31207 777.20298 204.18553 746.67708 199.34648 730.18479 c 0
 197.64042 725.42908 193.84622 720.47936 191.54475 717.24762 c 0
 187.3494 712.08911 189.08551 706.61958 186.32072 702.17379 c 0
 179.95127 691.93166 218.36803 717.89444 233.00528 714.86002 c 0
 240.11278 713.68057 248.67993 712.0786 254.47429 712.86271 c 0
 263.30179 714.05124 272.52204 710.34651 274.37824 712.19499 c 0
 278.96232 716.31566 288.97343 720.72568 292.45327 728.57537 c 0
 298.62973 742.50801 301.33825 759.14387 307.00472 771.01502 c 0
 308.67515 774.25128 310.54018 777.91699 312.49446 781.46138 c 0
 314.24855 783.14838 316.04375 786.40298 317.68092 789.73647 c 0
 319.8294 794.11106 321.70573 798.62149 322.85982 799.90324 c 0
 326.94496 804.19767 333.59745 808.47719 338.38072 813.3957 c 0
 339.25764 814.29741 340.07173 815.22059 340.79566 816.16928 c 0
 342.27069 816.9862 343.83522 817.53231 345.44326 817.8449 c 0
 350.88988 818.90367 356.83575 817.28335 361.49429 814.4327 c 0
 362.94741 813.54351 364.27528 812.53462 365.42367 811.44998 c 0
 366.30683 810.56349 367.2539 809.61886 368.24848 808.62473 c 0
 379.63659 797.24158 397.25153 779.36695 396.43134 767.94617 c 0
 396.29433 766.47634 396.22621 764.65817 396.21062 762.94184 c 0
 396.19242 760.94098 396.24562 759.07851 396.34434 758.06766 c 0
 396.58274 753.92637 395.35915 738.01697 392.44532 731.1106 c 0
 391.94518 729.92516 391.39524 729.00497 390.79435 728.45506 c 0
 390.10814 727.75198 389.35216 726.99696 388.53499 726.2039 c 0
 379.79118 717.71806 364.042 704.87689 351.80453 704.70913 c 0
 350.42253 704.69023 349.08532 704.83287 347.80805 705.16171 c 0
 344.69436 706.77599 344.61097 709.0129 343.06236 708.19665 c 0
 338.53476 705.81024 336.63052 708.03198 339.26973 702.39541 c 0
 341.14658 701.35823 343.10101 700.59236 345.10203 700.05877 c 0
 346.83892 699.74349 348.50775 699.56347 350.12162 699.49889 c 0
 359.81188 699.11112 371.25997 705.94454 379.82776 709.59175 c 0
 381.25566 710.1822 382.71139 710.78641 384.18571 711.40138 c 0
 385.60077 711.99163 387.37287 712.2519 388.814 712.85934 c 0
 405.25875 718.83192 427.11709 721.01511 444.59054 721.1806 c 0
 445.51224 721.1896 447.10155 721.1924 447.99741 721.1906 c 0
 449.50849 721.1866 450.30096 721.1678 451.72753 721.1348 c 0
 475.13174 721.63921 501.89064 711.2082 512.89029 694.1181 c 1
 525.40008 652.16409 537.02258 609.51849 546.54759 566.4767 c 0
 551.23108 545.31283 558.08751 522.38165 561.82476 501.83017 c 0
 565.79127 480.01798 571.37318 459.75891 573.94749 439.2944 c 0
 575.55944 420.57478 577.17985 402.06042 578.31364 383.72483 c 0
 578.52686 380.27659 578.72288 376.83468 578.89838 373.39891 c 0
 579.07196 370.00102 579.22548 366.60915 579.35576 363.22312 c 0
 580.0411 345.41062 580.08333 327.75976 579.01874 310.24571 c 0
 578.83197 307.26396 578.48689 304.24784 578.00326 301.21965 c 0
 574.86995 281.60075 565.92082 261.47536 556.5259 246.90593 c 0
 553.29728 242.0864 549.66236 237.09226 545.35508 231.39423 c 0
 544.71111 230.5364 543.95209 229.51789 543.01524 228.26829 c 0
 542.3379 227.41481 542.36541 228.41104 541.74792 227.26302 c 0
 539.36157 222.36307 517.78776 203.5962 514.00671 199.45018 c 0
 500.39721 187.45623 506.18038 190.37042 490.96635 181.10002 c 0
 484.29372 177.03417 457.24151 162.36287 450.74685 158.84852 c 0
 428.78001 147.02197 390.11594 153.55174 370.20261 144.58267 c 0
 362.62936 140.78027 354.69075 138.33662 346.76 137.60018 c 0
 335.56304 136.56043 324.38174 138.92365 314.26638 145.67042 c 0
 303.52683 154.57945 300.51438 167.91827 300.57127 180.35958 c 0
 302.21469 202.50071 304.93084 226.4835 305.16858 246.2627 c 0
495.38178 311.23534 m 0
 500.07871 332.26969 497.01607 355.64106 498.12013 374.143 c 1
 493.4608 393.10983 490.68635 419.56398 487.75946 436.88822 c 0
 483.72614 459.34227 483.52951 479.71326 476.81194 498.27144 c 0
 470.99113 520.12091 463.48049 541.29041 457.43216 561.01754 c 0
 455.29723 567.98079 453.34449 573.57411 451.71258 580.6028 c 0
 450.71017 585.62799 448.34045 590.3441 446.73554 595.08265 c 0
 444.82517 600.13713 441.77555 605.83679 440.57519 610.49273 c 0
 439.29071 615.38888 432.92929 622.06763 430.70207 624.22299 c 0
 425.15563 629.59056 406.85091 634.82011 393.79348 631.73623 c 0
 375.75247 627.47536 346.52626 614.37914 345.01474 604.30838 c 0
 344.583 601.43255 343.75515 598.11287 342.81957 595.2897 c 0
 342.2099 590.75452 342.20568 585.5863 343.09172 581.87744 c 0
 342.56512 577.67669 344.5634 569.84086 343.31792 566.80763 c 0
 344.51238 563.75813 343.65037 558.4287 344.68356 556.40748 c 0
 344.86486 553.43489 346.15207 547.42502 345.73002 545.29286 c 0
 351.66273 486.21725 365.9802 431.5325 369.33043 374.63625 c 0
 370.60595 365.2091 371.32495 355.95211 371.95872 346.95667 c 0
 372.84329 334.40158 373.56184 322.35599 375.39579 311.06837 c 0
 376.52486 293.01487 380.65819 269.47672 386.06669 253.35941 c 1
 400.24738 235.36859 430.18791 243.19003 447.63908 252.58553 c 0
 473.83698 265.46439 491.72827 289.87332 495.38178 311.23534 c 0
EndSplineSet
Validated: 524833
EndChar

StartChar: "+Bd4FtQXd"
Encoding: 18 1502 18
Width: 1124
Flags: W
LayerCount: 2
Fore
SplineSet
184.30175 164.46258 m 0
 197.57585 190.74268 231.98555 201.88248 250.88505 202.95428 c 0
 263.29185 203.66878 283.33085 203.36178 295.38505 202.96428 c 0
 371.78925 209.89478 422.94495 225.84628 475.74105 253.53313 c 1
 541.59375 277.85979 582.74485 315.10464 634.6015 351.03035 c 0
 645.3152 358.30988 659.919 372.46708 672.9906 372.46708 c 1
 671.342 404.08734 678.5329 442.92124 672.6014 469.39928 c 0
 669.9953 479.35318 664.1264 485.59892 651.3017 485.46258 c 1
 648.7535 512.42924 651.1554 532.57175 651.3017 560.23994 c 1
 614.25575 560.9265 l 2
 599.49745 561.47332 599.55395 561.39876 584.80175 560.9626 c 1
 585.13005 537.2719 577.43745 542.25228 562.26425 542.4626 c 2
 540.30175 542.4626 l 1
 469.55125 513.01337 362.41315 471.94129 302.37675 425.70539 c 0
 285.93355 412.33408 269.69775 398.23856 248.66075 388.63095 c 0
 217.49615 373.92666 214.87645 353.46266 183.80175 353.46266 c 1
 164.48735 346.49403 165.34415 334.46266 145.24155 334.46266 c 2
 127.80175 334.46266 l 1
 94.301751 334.46266 l 2
 84.457047 334.84923 74.990347 353.38085 73.301747 353.46266 c 0
 65.141347 367.63012 71.089647 394.31976 79.530347 399.42863 c 0
 96.762651 407.39218 95.887151 409.46266 117.30175 409.46266 c 0
 183.33185 415.65137 243.23745 495.33151 307.21205 532.93478 c 1
 335.21715 558.51168 356.09555 558.92688 387.63505 573.1497 c 0
 408.84475 585.53953 428.30175 593.93117 428.30175 617.46266 c 1
 402.33085 617.1427 406.11005 619.43401 406.30175 636.46266 c 2
 406.30175 646.70677 l 2
 406.27475 656.19167 408.23635 655.46266 399.99915 655.46266 c 0
 397.90675 655.46266 395.81425 655.46266 393.72175 655.46266 c 0
 384.07495 655.71978 384.30175 653.12529 384.30175 662.40026 c 0
 384.30175 666.42106 384.30175 670.44186 384.30175 674.46266 c 1
 373.45675 674.46266 l 1
 362.61185 674.46266 l 1
 361.95675 688.12077 l 2
 361.92375 698.96613 361.87475 708.05239 360.37065 714.9923 c 0
 354.22445 733.81708 340.30175 723.09113 340.30175 739.9626 c 0
 340.62865 752.70967 341.18675 749.4626 328.80175 749.4626 c 1
 307.06375 760.72795 316.94885 762.4524 317.30175 777.4626 c 1
 312.39055 794.5371 317.02495 798.96492 323.17945 803.69417 c 0
 326.76325 806.44797 330.86245 819.66115 333.89255 825.17577 c 0
 337.76045 832.20948 339.11355 830.4289 339.48975 841.62559 c 0
 340.18425 851.16196 342.83765 859.27805 352.15935 866.22094 c 0
 365.16795 875.74107 367.15915 876.77105 374.85755 877.23745 c 0
 386.79315 874.61453 394.09245 880.65527 400.30205 887.26912 c 0
 406.11715 893.46281 410.97655 900.15912 417.79295 900.71356 c 0
 430.73395 901.59047 450.51315 894.85732 455.13285 891.71699 c 0
 462.27185 886.46975 468.57695 879.4894 477.53555 873.65784 c 0
 484.19005 868.40344 488.75935 862.49304 495.28825 862.4626 c 2
 517.27855 862.4626 l 1
 517.53825 815.2126 l 1
 517.79805 767.9626 l 1
 545.71455 767.5437 538.04035 749.1498 562.29805 749.4626 c 1
 563.30495 770.98788 588.38125 775.72501 611.65775 779.25972 c 0
 638.073 783.88195 659.2975 808.51629 675.7926 808.32113 c 0
 714.4443 805.97912 747.1569 808.1571 777.6442 793.96298 c 1
 806.4606 785.71259 807.2977 788.08226 807.2977 757.60743 c 2
 807.2977 673.84579 l 2
 810.5219 563.10982 833.6412 512.71092 829.2977 391.4626 c 1
 834.9828 366.62756 834.7467 359.39549 825.1889 343.58548 c 0
 820.3404 333.80902 818.3425 318.85954 813.522 314.5399 c 0
 807.1928 308.86829 797.5126 315.4626 785.2977 315.4626 c 1
 751.6671 301.63846 735.7927 283.94992 712.516 265.90201 c 0
 653.59 230.62028 597.76705 194.43858 540.31015 165.19948 c 1
 476.79235 137.91898 429.46045 122.64958 363.14555 110.56518 c 0
 328.56095 104.00618 316.00285 110.70698 300.94135 96.589985 c 0
 292.35955 93.028185 282.87925 90.497685 273.06995 88.932485 c 0
 253.86795 85.868485 233.40565 86.503085 215.95585 90.340285 c 0
 206.38345 92.546885 198.60585 95.904285 194.21155 100.45278 c 0
 178.00115 117.80678 175.20475 142.08118 184.30175 164.46258 c 0
EndSplineSet
Validated: 524833
EndChar

StartChar: "+BeAF1QW8Bd8A +BdcF5AXZBegF1AAA"
Encoding: 19 1503 19
Width: 800
Flags: W
LayerCount: 2
Fore
SplineSet
315.83171 111.30487 m 1
 315.56354 126.11437 329.92776 137.99387 342.59433 150.45027 c 0
 358.65812 162.90635 372.28973 178.0119 383.6646 194.70926 c 0
 397.28186 214.69726 407.66584 236.96633 415.11916 259.70189 c 1
 414.69533 274.43282 409.77753 287.20499 410.496 300.90393 c 0
 411.09125 311.51511 414.53564 319.45355 417.55236 330.97328 c 0
 420.48373 342.27942 419.33748 346.84864 414.5824 358.64902 c 0
 404.91871 382.63143 404.1665 386.62607 401.26574 429.36859 c 0
 399.78728 451.15612 396.36663 469.99105 393.32354 473.10356 c 0
 382.62472 484.04681 353.6379 533.6765 348.1501 550.44635 c 0
 343.33139 563.89879 334.21698 570.71427 324.92612 577.89128 c 0
 319.94266 581.74112 314.90819 585.69499 310.45937 590.83304 c 0
 289.59505 609.86552 269.75193 631.74992 250.80081 653.18581 c 0
 232.41372 676.84395 208.62368 694.54041 192.2501 717.2905 c 0
 183.4061 729.54023 169.59591 729.00418 154.5326 730.33642 c 0
 137.13085 732.29804 126.02537 735.31452 115.79119 740.34772 c 0
 106.31861 745.00641 97.591772 751.3928 85.309437 760.26973 c 0
 64.484003 775.73358 57.566131 779.00714 64.994399 832.0948 c 0
 69.740891 849.11893 61.0184 866.86691 64.713292 883.68001 c 0
 70.73532 911.07459 88.946754 935.98737 97.585307 951.24372 c 0
 111.51792 970.94962 132.58638 981.01602 144.71922 1001.3213 c 0
 160.77089 1036.9929 187.24503 998.70712 187.70997 982.25282 c 0
 187.78777 978.64532 190.78982 970.90972 194.37825 965.06252 c 0
 197.27386 955.52622 200.98431 946.60942 205.22202 938.12444 c 0
 217.06931 914.40264 233.03492 894.05563 246.8144 872.98215 c 0
 259.22704 846.88772 275.22507 824.59258 292.95207 804.16769 c 0
 317.7933 775.54617 346.02923 750.5973 372.55184 724.01321 c 0
 379.82264 716.50968 385.23609 707.04875 392.38881 696.08825 c 0
 427.27099 649.66653 446.88695 627.27011 471.1987 584.9055 c 0
 483.95607 562.46177 491.57383 536.10233 502.29559 516.80971 c 0
 512.75522 493.79939 519.05361 468.05436 524.30534 445.41112 c 1
 525.04624 416.44709 524.91655 383.00482 523.24516 356.82659 c 0
 520.78388 335.17104 515.30902 315.61981 508.18479 297.10061 c 0
 498.58989 272.15733 486.00341 249.08587 473.76158 225.26592 c 0
 464.89253 208.10482 455.31056 192.19689 440.57634 180.16953 c 0
 416.5851 156.88767 395.19442 127.49667 378.39993 103.75347 c 0
 372.72831 95.577225 361.8811 93.204425 349.48362 88.448125 c 0
 331.31541 81.434725 317.8136 95.811725 315.83081 111.30487 c 1
 315.83171 111.30487 l 1
EndSplineSet
Validated: 524833
EndChar

StartChar: "+BeAF1QW8Bd8A"
Encoding: 20 1504 20
Width: 900
Flags: W
LayerCount: 2
Fore
SplineSet
130.81983 82.545871 m 1
 126.41542 82.680601 115.80085 81.995931 111.63526 82.526171 c 0
 100.97101 83.883271 98.028205 87.373261 94.047525 89.810451 c 0
 89.369875 92.814301 83.278885 102.39682 92.754725 116.34974 c 0
 97.399215 129.0677 115.52283 144.76388 131.94942 159.20819 c 0
 141.04871 166.73646 148.55183 174.74586 156.4019 182.42855 c 0
 165.2407 191.0575 162.40301 183.75541 177.54549 192.72862 c 1
 187.70565 193.86054 l 2
 191.81107 193.74742 195.45191 193.29189 198.49701 193.87944 c 0
 204.98129 195.13059 209.76439 198.11099 217.61058 198.10632 c 0
 226.18419 197.59442 237.24106 197.89904 245.348 198.36241 c 0
 251.12917 198.68691 258.34612 199.96523 262.95661 199.58942 c 0
 275.88933 198.53526 286.12618 195.59872 304.38151 195.67631 c 1
 312.59435 201.06612 315.83062 201.05396 325.43352 206.02897 c 0
 330.75926 208.00431 336.23543 210.40703 341.80183 212.52079 c 0
 345.38609 213.88186 348.4418 214.55717 352.0848 215.48738 c 0
 354.63979 216.62998 357.72776 217.43638 360.22134 217.35785 c 0
 363.95228 217.24036 367.61956 216.40879 371.2384 216.81657 c 0
 377.42313 217.55909 382.75988 220.98448 390.53134 221.7162 c 0
 436.15898 226.01228 440.96795 252.13834 472.45451 252.13834 c 0
 476.01488 252.52571 476.81044 251.62311 479.75565 253.81817 c 0
 481.63047 255.65461 485.65018 257.83051 487.34779 257.83178 c 0
 489.01245 257.83178 492.94901 259.55578 494.6239 259.60044 c 0
 497.51817 259.67764 499.85292 260.94199 502.72951 261.09054 c 0
 513.30451 262.09976 515.90942 270.54897 517.0828 274.17968 c 0
 517.69538 283.18181 514.85676 286.79154 514.91187 289.85104 c 0
 515.00177 294.83993 517.15253 297.42695 512.63662 312.56679 c 1
 516.36817 323.05709 512.02118 334.16032 509.36742 343.88376 c 0
 507.59878 350.36411 506.49477 356.24408 504.42968 361.57927 c 0
 503.94165 367.56079 500.07 371.32339 499.1923 376.63346 c 0
 499.3444 382.5459 499.47281 385.93881 499.02756 388.79052 c 0
 492.86164 405.69412 480.48448 422.13696 474.66094 438.55357 c 0
 468.52451 454.97268 457.52714 475.93463 449.58982 490.74085 c 0
 444.13601 500.91436 444.2181 498.0206 439.1231 507.83632 c 0
 435.66756 515.18262 428.11432 527.62738 419.45586 539.2783 c 0
 411.59784 550.18153 401.76344 558.45087 391.47843 565.84967 c 0
 379.80292 574.24877 367.54671 581.52602 356.94186 590.26102 c 0
 343.24029 601.74272 332.38843 613.86104 325.86569 629.38252 c 0
 321.46017 639.86587 319.0295 651.90167 319.0295 666.34229 c 1
 313.18026 681.49952 327.00579 687.4205 327.85524 693.78477 c 0
 329.11026 704.74591 326.54081 726.5644 325.26829 735.86598 c 0
 326.73545 748.89748 318.98262 743.3873 319.21044 749.74405 c 0
 319.77709 771.69924 308.173 780.60916 308.02043 790.25686 c 1
 298.43615 795.23308 326.0577 817.00134 330.03859 812.22056 c 0
 349.58161 797.52931 364.80967 812.13326 384.51802 819.55684 c 0
 394.49107 823.16519 391.25098 825.58712 399.8238 829.33454 c 0
 412.24398 834.7762 425.88354 837.95479 437.06578 844.70365 c 0
 451.72033 849.42518 452.22267 857.26662 454.71059 862.88783 c 0
 456.43254 866.05759 460.19127 869.50293 464.39876 871.99835 c 0
 469.47422 875.00855 475.20269 876.63647 478.7967 874.73096 c 0
 485.10972 871.50505 487.64326 866.69834 491.03308 861.4148 c 0
 493.84194 856.82394 499.12413 854.06272 501.41071 850.77907 c 0
 508.99862 843.65831 514.23525 832.23103 519.81971 832.09459 c 0
 542.75907 834.10008 553.61577 809.64845 553.22569 796.42572 c 2
 553.22569 784.15656 l 2
 549.69656 767.5411 560.65659 769.47685 567.98303 760.06948 c 0
 570.23129 757.13237 571.94592 754.0197 573.82564 751.30248 c 0
 592.97634 736.4103 575.45226 735.62344 575.24386 726.27302 c 2
 575.24386 717.42198 l 2
 578.11248 717.42198 580.98105 717.42198 583.84964 717.42198 c 0
 591.93524 715.98923 595.21038 703.39068 596.42234 695.24174 c 0
 603.973 676.28093 585.93556 668.60677 584.09097 659.64802 c 0
 582.14902 645.48022 586.10738 624.13025 586.25296 615.1433 c 0
 585.13204 608.05636 586.78282 600.9446 589.0641 593.82449 c 0
 603.97261 562.90974 618.13755 534.9331 626.67516 503.18434 c 0
 628.5945 491.46701 633.15326 484.05412 636.28172 473.9809 c 0
 640.67441 459.69985 642.04425 451.75356 643.37188 439.12373 c 0
 644.62585 421.53133 644.61427 390.81612 644.5244 374.83391 c 0
 643.31165 373.04083 646.81263 367.54134 647.92862 363.54847 c 2
 652.3517 347.14623 l 2
 653.64526 338.57143 656.24328 340.7749 662.0772 337.33306 c 0
 671.61029 331.64054 677.29047 321.16659 681.91548 310.6749 c 0
 684.63479 304.50624 686.98933 298.33145 689.54777 293.11877 c 0
 692.81616 287.91934 695.32204 282.72785 696.68057 277.18039 c 0
 701.02029 259.28997 698.19885 241.74698 694.30328 227.72061 c 0
 690.70084 221.17875 692.00916 221.12672 692.63512 215.1109 c 0
 694.12197 201.63506 684.16495 195.40404 675.17609 196.81938 c 1
 641.12586 186.11894 622.16917 167.64976 585.96009 155.98934 c 0
 578.7321 155.62147 571.74929 150.88084 565.25795 150.35594 c 0
 557.37882 149.79977 552.26826 154.44637 542.47335 154.44637 c 0
 525.02309 154.44637 517.83513 150.73574 500.3849 150.73574 c 1
 400.37535 119.52684 330.56309 113.2832 242.90309 97.837021 c 0
 206.45187 91.131401 168.82552 83.922791 130.81989 82.546021 c 1
 130.81983 82.545871 l 1
EndSplineSet
Validated: 524833
EndChar

StartChar: "+BeEFtQXeBbAF2wWwBbwA"
Encoding: 21 1505 21
Width: 1000
Flags: W
LayerCount: 2
Fore
SplineSet
222.77567 212.51267 m 0
 221.29866 214.29854 219.73837 216.17374 218.03382 218.18473 c 0
 217.36892 220.26686 216.81022 221.92623 216.33272 223.25367 c 0
 215.80702 226.09093 214.44952 227.82207 212.40352 229.38763 c 0
 210.66902 230.75402 200.11849 264.0032 198.27809 264.56637 c 0
 188.03922 326.93345 195.87133 382.92831 193.26257 438.07087 c 0
 192.59973 452.08166 196.71724 461.93026 192.95013 475.59942 c 0
 187.01313 493.50696 178.59008 510.14322 169.64767 524.24474 c 0
 154.73172 547.76609 138.37081 564.23521 129.69192 567.78871 c 0
 105.40856 570.79854 92.810337 576.43257 85.121864 586.11835 c 0
 77.022124 596.32225 74.371474 611.02297 69.248034 631.88962 c 0
 66.275294 643.08582 65.134544 655.42144 64.717074 667.66265 c 0
 64.574194 678.76041 64.221114 690.14019 64.485944 701.34278 c 0
 64.887744 718.33947 66.711894 734.92828 72.850534 749.5054 c 0
 79.460064 764.88351 89.167267 778.9032 99.352637 794.06269 c 0
 109.23768 805.52266 119.94941 818.25625 130.18857 829.7295 c 0
 139.34327 839.98759 148.12019 849.23818 155.59072 855.67019 c 0
 162.48602 861.44527 171.00462 869.09301 183.79427 871.22029 c 0
 196.67951 873.36347 213.83654 869.96667 220.90186 870.54082 c 0
 238.19962 867.85672 247.08931 859.50252 253.05038 849.58887 c 0
 258.67028 840.24262 261.6872 829.5103 266.6926 820.83638 c 0
 272.05478 812.15774 273.6768 812.28885 279.80287 805.26504 c 0
 283.33504 802.6481 287.47129 798.89615 291.31126 795.39787 c 0
 295.177 791.87612 298.74247 788.61147 301.08908 787.02072 c 0
 305.52262 784.87101 310.72871 780.99424 314.83699 779.34601 c 0
 331.45284 772.6798 328.50674 780.35539 349.62237 779.98246 c 0
 372.61918 781.84693 394.00048 782.39512 415.15284 782.41623 c 0
 435.50806 782.43653 427.80006 781.96876 448.96694 781.71618 c 0
 471.14645 781.47222 492.93595 781.8409 512.88937 784.16026 c 0
 526.954 785.79512 536.64259 786.66728 549.7767 791.40934 c 0
 561.23107 796.43845 595.27403 813.00875 607.46216 818.87228 c 0
 622.74633 826.50089 651.05568 825.83873 665.29077 827.20936 c 0
 671.55257 827.74512 689.19027 828.78723 723.77247 819.61257 c 0
 741.03777 813.79806 746.13198 798.70525 757.75028 784.25886 c 0
 769.29196 768.81084 775.41848 752.3879 778.15166 736.08329 c 0
 783.74219 721.40516 780.61672 706.3947 780.14925 689.92772 c 0
 779.60258 670.67065 780.53315 651.55156 780.48778 632.17891 c 0
 780.43798 610.90745 783.32649 584.56189 779.7139 567.19531 c 0
 779.7905 540.79423 763.25401 544.87148 749.17602 532.93922 c 0
 741.91307 526.78327 732.38473 501.76742 732.26002 496.75907 c 0
 728.02344 477.41055 722.90239 457.99333 717.9912 440.35636 c 0
 714.89983 429.25956 711.70562 417.95767 708.23109 406.86872 c 0
 695.31527 375.3355 674.16546 340.74054 656.37099 313.20358 c 0
 650.85333 304.665 645.46701 297.37886 640.43892 292.00271 c 0
 620.50136 269.96057 602.18702 252.8322 580.28946 243.79164 c 0
 559.801 235.33283 537.91721 228.72969 513.63249 216.80502 c 0
 490.89651 208.48159 471.8472 201.13462 452.20892 194.85492 c 0
 440.94367 191.25265 429.48461 188.00156 417.02466 185.11882 c 0
 403.92588 182.26146 426.6711 179.92481 414.00963 177.96561 c 0
 392.32072 175.37384 371.5026 170.60651 350.68093 167.78338 c 0
 329.39426 164.89721 308.10388 164.04304 285.87554 169.62285 c 0
 276.4482 172.08429 267.69887 175.56281 259.33651 180.3582 c 0
 246.59431 187.66523 234.75059 198.02982 222.77567 212.51267 c 0
436.40779 315.10833 m 2
 438.53429 315.40967 440.45379 315.15923 442.31739 315.10133 c 0
 444.34169 315.03873 446.29979 315.20354 448.38529 316.54994 c 0
 451.10419 318.41111 453.82569 320.23158 456.14889 321.38335 c 0
 462.34729 321.49267 462.47599 323.56775 464.38089 324.5978 c 0
 468.08679 326.60182 469.70039 328.56811 474.05209 331.85651 c 0
 477.19949 331.84851 480.03149 333.34558 482.58269 335.20848 c 0
 485.48779 337.32983 488.02849 339.92558 490.25569 341.31347 c 0
 492.55019 342.64994 494.37859 342.6968 497.75179 343.8569 c 0
 511.31999 351.83235 517.37943 365.30434 527.64572 375.78381 c 0
 539.94739 388.79929 549.08926 398.55097 558.15056 411.51003 c 0
 571.45806 434.87189 588.20189 447.54117 593.80922 471.93099 c 0
 594.95927 476.89794 596.17909 480.65861 599.94718 486.07637 c 0
 606.25179 497.36016 613.90161 508.00566 614.18555 518.46425 c 0
 614.42501 533.30954 614.48657 548.62541 614.46772 563.71529 c 0
 614.44732 580.99956 614.30731 599.80746 614.22248 615.56837 c 0
 613.06647 629.86167 610.90957 642.83907 604.26468 652.15842 c 0
 598.94013 659.62603 590.7339 664.74487 577.85189 666.30988 c 0
 546.62613 662.82247 517.36005 666.93586 488.37343 666.25608 c 0
 485.39113 666.56306 478.18297 667.07369 475.30047 667.12363 c 0
 470.86267 667.20053 466.88382 665.58782 462.62692 665.16577 c 0
 418.07877 657.9388 390.28476 667.38752 350.19641 654.00626 c 0
 338.63932 650.31118 330.32803 639.44145 325.62555 628.02956 c 0
 319.0875 606.56158 320.55459 584.39709 320.8716 564.43267 c 0
 321.12937 548.46571 321.99538 522.98924 322.72863 500.4103 c 0
 323.69935 478.62992 323.83779 454.26556 324.00037 433.93396 c 0
 324.11719 413.38279 323.6886 394.86596 323.15249 375.91334 c 0
 322.81272 363.86339 322.54036 351.84514 322.86155 335.0536 c 0
 323.50211 310.96551 317.24803 315.36571 331.64444 303.36318 c 0
 343.88632 296.80875 360.68741 294.96298 370.38792 293.60244 c 0
 396.17075 289.90139 420.07871 308.35739 436.40779 315.10801 c 1
 436.40779 315.10833 l 2
EndSplineSet
Validated: 524833
EndChar

StartChar: "+BeIFtwXZBbAF3wAA"
Encoding: 22 1506 22
Width: 800
Flags: W
LayerCount: 2
Fore
SplineSet
227.55116 211.52614 m 0
 213.41256 196.10757 204.112 196.64983 193.46453 195.62126 c 0
 175.92861 189.72298 162.40664 188.51589 146.2953 184.46855 c 0
 136.69687 182.56625 122.97923 185.91706 117.48343 193.9373 c 0
 112.83002 206.13748 115.40074 221.69258 118.34668 232.98156 c 0
 123.19056 251.10716 129.26758 269.01756 131.92054 274.32586 c 0
 135.4533 302.57526 170.71884 308.67342 187.10044 310.34017 c 0
 189.48115 310.5824 191.37038 311.03882 192.58586 311.8533 c 0
 194.10075 312.86841 194.56907 314.43969 193.63791 316.84564 c 0
 191.95778 332.30853 169.09715 343.14931 164.04084 365.18792 c 0
 158.48742 389.83468 183.24731 393.50966 182.18084 398.77884 c 0
 179.22146 470.40402 176.77704 555.73326 179.00782 621.36825 c 0
 179.49954 637.62264 193.83781 654.37208 184.00561 664.91537 c 0
 177.38613 668.42683 172.57509 674.54781 168.79195 681.91634 c 0
 165.45881 688.40851 162.92363 695.86909 160.65249 703.36657 c 0
 158.90436 709.59935 157.4706 716.75422 156.35624 724.52806 c 0
 155.43579 730.94918 129.55209 734.74233 115.60721 739.59622 c 0
 107.51947 745.01264 89.633366 753.79857 91.185406 764.30684 c 0
 90.165225 770.63493 90.271603 776.6222 91.250596 782.58571 c 0
 92.768915 791.16422 100.38354 799.85815 108.84791 808.57946 c 0
 117.96786 817.97626 125.6731 828.40192 130.20346 834.15453 c 0
 141.30516 858.002 158.86865 877.08018 168.14617 898.59717 c 0
 174.02471 913.39731 181.15463 924.50752 190.14095 934.38643 c 0
 190.98747 935.32085 191.72721 936.24519 192.6227 936.70316 c 0
 193.82833 937.3982 194.28821 937.90633 195.57847 938.62272 c 0
 199.44786 940.77111 203.95797 943.08568 207.93996 945.30493 c 0
 208.64131 945.69581 209.32628 946.08374 209.98847 946.46727 c 0
 211.09004 947.10529 211.12812 947.33098 212.07427 947.93815 c 0
 215.85065 949.85297 220.0157 951.7737 223.03623 954.1752 c 0
 224.29113 954.86552 226.00009 955.39014 227.65226 955.6252 c 0
 229.66283 955.91125 232.3897 954.76801 233.3115 953.97321 c 0
 236.62217 950.96252 239.7741 950.16226 242.9788 947.76964 c 0
 243.55964 947.33599 244.14221 946.85003 244.72777 946.28912 c 0
 245.17433 945.8883 245.61464 945.50663 246.04836 945.13572 c 0
 248.77992 942.79965 251.2495 940.88985 253.36526 937.30473 c 0
 253.68487 936.38417 253.97632 935.45976 254.24231 934.5322 c 0
 254.55933 933.42669 254.84019 932.31672 255.08942 931.20344 c 0
 257.56643 920.13934 256.92095 908.74957 257.62439 898.1898 c 0
 261.87919 834.44492 265.04356 771.8846 278.24149 708.73587 c 0
 279.95122 698.18524 280.21332 687.01078 279.97304 676.03655 c 0
 279.73117 664.99001 278.98027 654.14636 278.68438 644.34605 c 0
 278.3452 632.90132 278.20889 621.7895 278.21898 610.38862 c 0
 278.29688 541.49019 283.18187 468.70232 281.42008 403.30659 c 0
 281.05038 391.21344 283.28056 391.30491 286.22234 388.08257 c 0
 292.14595 381.50692 295.47406 376.37762 298.04855 372.33583 c 0
 302.57875 365.22367 303.17469 353.08655 313.07349 350.75375 c 0
 358.87292 347.62896 389.07705 339.74555 430.83733 357.89013 c 0
 438.12204 361.13662 446.7648 364.69023 454.37219 368.7957 c 0
 462.24405 373.0439 469.0073 384.67449 472.01013 390.37569 c 0
 475.20923 397.15133 479.98682 419.25562 480.87103 427.3028 c 0
 483.24968 469.40839 481.51867 529.17163 481.96679 565.63786 c 0
 482.69091 632.12158 477.6708 691.02402 478.9844 759.63575 c 1
 469.37061 793.50403 439.48396 817.04884 439.35182 850.0603 c 0
 439.69993 864.71605 447.27402 878.43855 453.71963 886.21318 c 0
 479.33016 917.10431 521.99819 919.18383 550.87728 882.0765 c 1
 605.13406 778.73484 568.49007 649.52147 596.89034 551.51844 c 0
 601.18232 532.622 593.59283 508.46449 595.99853 492.78554 c 0
 595.45764 476.98229 596.20061 451.69397 594.60075 433.98357 c 0
 592.04806 414.39966 583.6075 395.68272 570.52785 385.58569 c 0
 564.81672 381.92761 566.67011 369.00789 566.54925 357.03239 c 0
 566.4251 344.73143 582.8524 323.268 578.73917 311.15579 c 0
 567.30128 277.47471 531.3 248.31319 515.78549 240.61354 c 0
 503.62051 235.89313 497.21675 243.12003 452.43276 240.30289 c 0
 437.82172 239.38379 409.09854 239.21738 385.50705 238.43734 c 0
 349.51143 241.89098 312.43052 227.19419 285.03665 215.86115 c 0
 275.4773 212.07734 271.11369 212.13497 264.66564 215.82945 c 0
 255.86226 220.87345 252.92803 230.95201 245.11302 235.39008 c 0
 241.66386 237.34882 240.89718 238.39729 237.61418 237.50413 c 0
 236.45065 237.18758 235.25934 231.1718 234.03171 229.11849 c 0
 231.55813 224.83513 229.96534 214.13298 227.55116 211.52614 c 0
EndSplineSet
Validated: 524833
EndChar

StartChar: "+BeQFtQW8BdQA +BdcF5AXZBegF1AAA"
Encoding: 23 1507 23
Width: 512
Flags: W
LayerCount: 2
Fore
SplineSet
362.96348 297.2377 m 0
 362.5363 304.51006 363.05568 318.70841 363.4907 334.28511 c 0
 362.97851 356.96143 362.75378 381.71725 361.67708 406.43522 c 0
 359.75389 450.58637 355.1125 494.61673 341.25947 526.45977 c 0
 338.55733 531.97303 324.57192 575.23284 321.68397 580.64206 c 0
 304.5305 612.77103 300.75169 615.44434 281.51474 649.09534 c 0
 277.67133 655.66524 263.54733 681.12238 252.70453 694.80616 c 0
 238.47403 709.14019 224.40953 700.14317 217.48751 688.19475 c 0
 201.685 666.51627 185.09144 658.04734 179.42302 636.69904 c 0
 176.31545 625.36588 173.83162 607.10205 169.93839 592.03173 c 0
 165.88344 576.33536 163.87853 562.31383 169.08179 557.6785 c 0
 180.86762 548.14465 222.89816 541.219 229.45435 528.18831 c 0
 231.80684 523.43168 234.80998 520.07825 234.59672 507.73372 c 0
 233.95925 499.46212 232.3561 489.81913 229.45547 480.96534 c 0
 225.80448 469.8212 220.09791 459.92739 211.6741 455.59238 c 0
 182.253 453.2702 136.83316 452.79781 111.61615 467.01271 c 0
 95.320918 479.36799 88.125588 496.40046 77.741078 514.74047 c 0
 64.735298 531.95525 60.502858 547.28354 60.580578 562.12697 c 0
 70.006328 610.54496 74.276728 660.82985 100.06518 700.56017 c 0
 121.94945 733.80072 153.83711 759.68141 178.68042 795.44229 c 1
 198.97876 814.69576 239.45345 847.11255 264.57575 841.70818 c 0
 275.09428 837.34867 289.77012 828.48107 292.97015 823.38899 c 0
 305.7834 803.98714 313.6897 810.31506 323.65277 790.20781 c 0
 332.41245 772.52921 339.44243 776.1482 347.38078 750.74186 c 0
 351.16033 738.64559 368.70644 716.5132 369.56186 697.30847 c 0
 370.388 678.76131 377.34782 660.03963 380.09371 652.58198 c 0
 392.00082 621.58068 403.1072 615.83227 412.30584 585.04486 c 0
 431.94684 539.23525 437.06546 444.17236 443.36726 398.90136 c 0
 441.85 390.56593 448.22028 312.61678 447.97669 304.07569 c 0
 449.53561 274.87432 449.39347 250.16693 440.31692 228.99703 c 0
 434.13459 214.57754 424.26426 200.71691 412.96464 185.6385 c 0
 404.59586 174.42226 398.61417 159.46393 395.1937 152.94343 c 0
 381.71939 127.25714 359.90212 134.20613 352.38438 134.13853 c 0
 343.32847 134.05713 334.96729 136.92782 333.10951 163.26951 c 1
 342.27479 186.47877 350.57454 207.43153 356.15635 228.98356 c 0
 361.66133 250.23891 364.52269 272.07715 362.96348 297.2377 c 0
EndSplineSet
Validated: 524833
EndChar

StartChar: "+BeQFtQW8BdQA"
Encoding: 24 1508 24
Width: 600
Flags: W
LayerCount: 2
Fore
SplineSet
140.81787 210.47395 m 0
 153.72761 223.68201 167.59933 231.38937 181.59567 236.83037 c 0
 194.27001 241.75743 207.04657 244.82606 219.30358 248.43792 c 0
 226.69032 250.63943 238.58245 253.7965 245.73384 255.01497 c 0
 260.88355 257.93166 273.83638 263.23322 288.53122 269.32933 c 0
 302.45312 271.17086 314.54794 279.00887 326.02498 288.08975 c 0
 337.32931 300.17597 352.16379 305.24752 363.41658 315.97524 c 0
 373.02829 325.29136 386.58717 339.68167 389.21822 359.8853 c 0
 395.81696 402.08659 400.18998 411.35436 396.72619 449.75594 c 0
 393.70499 495.86939 376.98616 543.04691 370.14404 580.86035 c 0
 364.39697 613.94395 343.76674 671.17744 332.94207 693.06596 c 0
 329.30406 699.93623 315.93489 736.31536 305.67156 750.62475 c 0
 292.20159 765.61412 248.97699 753.48651 242.4249 740.99183 c 0
 227.46693 718.32223 211.76018 709.46611 206.3947 687.14179 c 0
 203.45321 675.29049 201.10212 656.19165 197.41696 640.43234 c 0
 193.57872 624.01834 191.68096 609.35577 196.60614 604.50851 c 0
 207.7621 594.53879 247.54639 587.2965 253.7522 573.67006 c 0
 258.50366 565.84282 262.472 557.43927 264.59644 548.73884 c 0
 266.65001 540.32867 266.98065 531.64109 264.63024 522.92848 c 0
 261.17437 511.27484 244.89578 502.28833 236.92216 497.75513 c 0
 209.07342 495.32678 166.08096 494.83279 142.21163 509.69758 c 0
 126.78728 522.61773 114.538 537.70966 104.70847 556.88815 c 0
 88.072981 578.61911 94.141103 609.8198 97.713859 632.2835 c 0
 104.5199 675.48609 110.5694 718.67609 131.278 753.92258 c 0
 169.63241 807.47894 200.16481 857.58795 254.0692 885.59428 c 0
 278.15749 897.98151 304.0402 907.3012 316.90835 904.24297 c 0
 326.86474 899.68415 340.75625 890.41113 343.78526 885.08625 c 0
 355.91373 864.79737 363.39749 871.41459 372.82811 850.38806 c 0
 381.11964 831.90122 387.77392 835.68566 395.28802 809.11777 c 0
 410.56608 772.82574 422.18755 741.86237 435.43252 705.91069 c 1
 447.24662 651.90638 466.52014 625.72735 472.82921 574.96207 c 0
 475.98069 548.47632 481.59137 498.55267 484.39894 478.33745 c 0
 490.21859 442.93338 492.71407 405.15596 491.66947 375.39097 c 0
 491.07322 360.95031 491.29048 320.97518 486.4166 307.18586 c 0
 472.36162 284.43315 452.59555 265.81902 432.12083 247.30308 c 0
 407.69602 225.21492 360.79873 194.97169 333.7911 177.02431 c 0
 292.27872 149.95796 274.09598 141.2668 233.39199 123.44577 c 0
 201.72878 112.07704 171.05261 99.361235 143.83541 96.310995 c 0
 133.27687 95.872415 113.75244 110.92975 110.5876 119.7043 c 0
 106.37903 130.91917 105.67108 138.05323 106.94648 145.03885 c 0
 110.23953 157.07778 113.87763 167.91807 118.48277 177.82883 c 0
 124.10741 189.93369 131.17456 200.65193 140.81787 210.47395 c 0
EndSplineSet
Validated: 524833
EndChar

StartChar: "+BeYFuAXTBbUFvAXn +BdcF5AXZBegF1AAA"
Encoding: 25 1509 25
Width: 800
Flags: W
LayerCount: 2
Fore
SplineSet
133.70195 761.96249 m 0
 127.13184 779.6892 134.04242 808.07952 135.60957 821.76536 c 0
 136.81376 835.26955 139.23341 846.89947 146.00753 863.0511 c 0
 165.60682 896.29077 184.19617 900.48537 213.54537 875.73749 c 0
 232.0088 859.37778 241.89196 835.87616 249.95455 817.85604 c 0
 254.60767 806.7037 252.03806 792.10423 254.66485 781.02535 c 0
 265.02691 752.6659 278.79133 716.19322 302.94865 697.21873 c 0
 310.6232 691.52721 320.82578 700.06044 325.7098 704.96674 c 0
 362.59375 730.58337 419.57154 729.08787 450.01585 758.48623 c 1
 449.32599 768.27644 447.82729 778.16646 449.34424 787.79861 c 0
 452.8141 807.52149 462.60256 833.11916 476.77971 850.03677 c 0
 485.55953 860.84659 497.48529 866.93736 510.40016 870.37523 c 0
 522.45107 873.53868 534.03465 874.26036 540.85899 873.96487 c 0
 557.8597 868.38826 560.05854 857.70429 560.40122 846.68345 c 0
 561.37158 833.7989 557.92497 818.50053 565.32828 811.24719 c 0
 573.42017 804.74764 573.99799 798.12522 572.32158 789.32877 c 0
 570.42662 780.28681 577.45795 777.42016 585.1627 774.59154 c 0
 598.23818 769.5744 597.34749 762.88503 606.23126 755.06484 c 0
 614.56201 747.7623 626.39294 738.84433 628.40393 734.04579 c 0
 631.50374 728.04195 632.03928 722.50083 631.6781 716.79602 c 0
 630.99698 705.24179 626.84908 695.7396 623.56797 684.47304 c 0
 622.12606 679.85154 618.5633 676.63354 616.27632 672.19661 c 0
 608.01637 656.37093 564.09453 655.2522 545.41279 653.91998 c 0
 527.90005 652.67114 509.74897 657.25494 498.34758 666.66752 c 0
 491.5307 674.54105 468.67665 676.79192 449.74397 672.65704 c 0
 440.36038 672.37892 431.22721 671.10763 422.33317 669.0831 c 0
 406.15132 661.70718 386.44694 657.12925 372.62056 650.26055 c 0
 361.20003 644.46702 350.22188 638.09842 339.6531 631.8533 c 0
 327.63894 624.64521 323.33959 618.50148 326.22123 608.42145 c 0
 341.82757 547.54287 353.83387 479.15735 364.07758 425.445 c 0
 367.12098 409.61662 370.08973 393.78189 372.79957 377.90452 c 0
 375.14297 364.17344 377.2926 350.41047 379.12897 336.59213 c 0
 380.84045 323.71402 382.27979 310.78783 383.35049 297.79453 c 0
 386.04967 265.0403 375.91349 231.85964 372.37797 197.94845 c 0
 369.33611 173.50425 352.69672 154.24957 345.46417 149.23304 c 0
 333.53045 140.95599 315.19769 138.43824 311.36189 164.61201 c 1
 312.39944 207.15856 310.58388 247.95218 306.41118 288.19074 c 0
 304.97377 302.05096 303.25677 315.84534 301.28034 329.62282 c 0
 299.34953 343.0828 297.17099 356.52663 294.76386 369.99997 c 0
 292.03577 385.2694 289.01396 400.57672 285.72591 415.98837 c 0
 282.5183 431.02307 279.05717 446.15707 275.36837 461.45204 c 0
 271.59399 477.10181 267.581 492.92012 263.35678 508.97302 c 0
 249.8587 557.15864 228.78705 597.89907 212.74051 640.9964 c 1
 196.4877 664.5879 185.73488 703.04339 166.36246 729.36023 c 0
 160.24409 737.67186 153.26592 744.77266 144.98314 749.81198 c 0
 139.16635 752.31858 135.59798 756.9505 133.70195 761.96249 c 0
EndSplineSet
Validated: 524833
EndChar

StartChar: "+BeYFuAXTBbUFvAXn"
Encoding: 26 1510 26
Width: 800
Flags: W
LayerCount: 2
Fore
SplineSet
90.340046 126.79664 m 2
 69.706912 128.68799 59.994248 143.45155 50.244546 150.74647 c 0
 30.592469 175.43212 105.94361 212.64573 121.23402 222.86394 c 1
 157.73775 236.00693 202.28406 263.97061 237.71075 271.44592 c 0
 245.56462 273.2527 253.12675 273.14071 260.51205 273.90413 c 0
 272.66071 275.15913 284.92024 277.67047 296.31426 276.95373 c 0
 300.63595 276.68571 304.79698 277.1556 310.06053 281.00707 c 0
 318.47005 287.2426 326.52537 297.76879 329.72883 302.96001 c 0
 337.98075 315.08704 337.60455 315.94672 337.35605 326.26824 c 0
 337.20054 332.72932 336.18036 340.30061 335.0891 343.09329 c 0
 324.60935 376.84708 330.28293 414.83159 314.65565 442.86327 c 0
 310.23704 450.62832 307.93778 457.6728 308.11311 462.9084 c 0
 308.33862 469.6441 306.80326 472.50904 298.84156 480.20846 c 0
 293.5935 485.28357 289.29969 490.21941 289.29969 491.17696 c 0
 289.29969 492.13447 285.85834 496.59414 281.65226 501.08733 c 0
 273.51891 509.77588 266.56476 521.30126 266.56476 526.0925 c 0
 266.56476 527.68889 263.03362 534.24294 258.71776 540.65703 c 0
 254.40192 547.07115 250.25005 555.36449 249.4914 559.08673 c 0
 248.73274 562.80898 247.19437 567.81362 246.07275 570.20814 c 0
 238.65035 586.05428 230.20821 610.43807 230.19938 616.0559 c 0
 230.17788 629.69603 221.05838 656.5875 213.3435 665.75984 c 0
 200.16348 699.95923 157.71303 729.45952 150.1983 759.96033 c 1
 158.984 817.87059 213.13546 844.7992 255.38415 849.30265 c 0
 270.99981 847.75573 271.45683 831.06184 276.54652 821.71187 c 0
 291.71133 788.24509 341.28023 757.63193 338.31533 727.26161 c 0
 337.49648 722.3584 335.16059 716.58416 333.12451 714.42993 c 0
 328.76359 709.81604 328.55968 702.60069 332.12891 679.20018 c 0
 335.07384 659.89299 341.89564 644.44533 350.57768 637.42392 c 0
 353.76217 634.84849 358.41382 627.63893 360.91467 621.4026 c 0
 363.41553 615.1663 367.43358 609.05032 369.8437 607.81154 c 0
 375.69817 604.80248 402.48981 607.08416 411.01417 611.31778 c 0
 433.58535 614.55011 449.99359 637.62175 466.09168 647.47439 c 0
 473.0649 652.29654 481.89419 651.55002 488.8014 654.91056 c 0
 515.21778 671.40344 521.22532 706.05166 527.04218 733.4708 c 0
 527.80216 737.06257 528.33591 742.2952 528.22833 745.09884 c 0
 514.18107 798.12427 529.74419 819.00627 548.01871 849.14272 c 0
 556.0772 864.47802 564.90595 878.76021 580.56051 886.8386 c 0
 599.27862 896.33338 622.01674 898.29595 633.15564 897.82189 c 0
 658.39593 889.68407 653.78951 871.42372 654.78968 855.88225 c 0
 655.03573 850.02011 652.82814 845.49556 653.52522 839.26386 c 0
 656.28991 814.54848 658.37608 788.50068 661.10748 771.30501 c 0
 661.62372 767.39931 663.61281 761.04254 665.52765 757.17885 c 0
 667.44249 753.31516 670.46394 742.17519 672.242 732.42335 c 0
 674.02004 722.67152 676.45468 713.53014 677.65237 712.10918 c 0
 680.26043 709.01487 686.51503 688.7397 688.28683 677.63602 c 0
 690.30823 670.9187 694.70875 662.5444 698.03598 654.74075 c 0
 701.42457 648.29001 702.00987 642.33644 701.61512 636.20696 c 0
 702.98479 627.64116 699.9116 621.18379 696.31205 615.37334 c 0
 688.98936 606.76968 688.58845 597.09864 683.96786 588.28771 c 0
 674.93868 571.28402 655.31117 562.72116 634.88946 561.28977 c 0
 615.74577 559.94798 595.90418 564.87297 583.44096 574.98619 c 0
 575.98918 583.44582 551.00656 585.86421 530.3107 581.42157 c 0
 521.41467 579.26347 513.24218 575.70908 504.67076 574.49021 c 0
 473.9102 574.63861 454.58488 574.36237 435.05406 554.89487 c 0
 428.92598 548.80873 422.15684 542.99769 420.63812 542.99769 c 0
 416.44298 542.99769 414.1228 529.85711 413.93671 505.04359 c 0
 413.78373 484.64441 414.56555 477.32304 417.43866 472.25052 c 0
 432.35744 432.38688 465.17093 407.29969 461.65338 362.27071 c 0
 460.63787 350.92402 458.71542 336.51171 457.38137 330.24332 c 0
 455.57094 324.80595 456.66862 318.95126 456.39866 313.65156 c 0
 452.25016 305.76627 456.82676 295.12808 455.90024 291.52408 c 0
 451.4982 276.26515 445.14556 264.12067 434.34463 254.72183 c 0
 419.77462 242.28251 382.67737 224.15659 367.43802 222.03091 c 0
 361.34936 221.18162 354.10182 219.09372 351.33237 217.39113 c 0
 348.56292 215.68853 344.34013 214.2955 341.94843 214.2955 c 0
 339.55668 214.2955 336.2451 212.73252 334.58929 210.82225 c 0
 259.62787 203.20564 194.94546 138.60844 132.94005 128.26701 c 0
 100.09282 125.37481 92.322566 125.10663 90.340136 126.79664 c 2
 90.340046 126.79664 l 2
EndSplineSet
Validated: 524833
EndChar

StartChar: "+BecF1QW5BeMA"
Encoding: 27 1511 27
Width: 900
Flags: W
LayerCount: 2
Fore
SplineSet
368.75538 141.0946 m 0
 353.46124 208.8467 349.24956 283.2288 332.59655 349.7286 c 0
 323.7411 385.7815 316.80359 420.696 307.26551 455.5126 c 0
 292.18217 519.2885 280.34399 576.2981 256.84456 626.8388 c 0
 250.99074 635.3767 247.01331 642.92 239.96954 644.2414 c 0
 234.03271 643.7322 228.64353 643.8668 223.00616 643.2998 c 0
 202.32274 641.1415 184.68402 624.5911 168.34502 623.2133 c 0
 146.46712 621.4825 144.04458 621.862 139.86748 627.6747 c 0
 134.44778 635.2168 134.91981 638.5996 143.53808 653.9837 c 0
 148.87539 663.5112 150.6702 667.4553 150.33375 674.1673 c 0
 148.88177 681.6937 149.0966 687.6648 150.44152 694.7011 c 0
 151.38063 699.5887 152.53184 704.5758 153.99292 709.0957 c 0
 156.66173 715.9273 159.20952 720.5619 162.66225 723.6049 c 0
 166.36904 726.8717 171.11876 728.304 178.18103 728.651 c 0
 186.04896 731.2351 190.14316 736.0713 192.72835 742.0375 c 0
 195.54669 751.2157 198.47724 760.4936 200.82557 768.978 c 0
 202.37309 774.6677 205.07384 781.9435 207.08156 787.234 c 0
 211.51839 799.1181 215.04159 810.106 218.56114 821.109 c 0
 220.80321 827.1695 222.55566 833.2765 224.2612 839.3044 c 0
 226.84044 848.4202 229.31241 857.3551 233.20855 865.6749 c 0
 234.98254 869.4624 236.73225 873.1757 238.33689 876.8638 c 0
 240.40326 881.6631 243.33613 889.2159 247.07972 894.2085 c 0
 251.89456 900.5499 254.00278 893.7198 256.96012 885.0691 c 0
 259.6533 877.1909 263.32692 867.8812 264.98545 864.1021 c 0
 266.72881 860.1627 268.2283 856.479 268.31767 855.9163 c 0
 270.72676 853.5816 273.05628 850.7437 275.28086 847.7747 c 0
 278.65524 843.2711 284.64919 837.817 287.45246 834.0079 c 0
 292.06813 827.8514 299.69664 817.5602 303.75667 810.4529 c 0
 310.15168 799.2583 312.20592 792.456 319.04374 784.2073 c 0
 325.11958 776.7675 335.84101 778.5226 348.66956 785.3136 c 0
 353.98513 788.1275 359.86545 790.4298 361.737 790.4298 c 0
 363.60854 790.4298 369.44902 793.1824 374.71577 796.5465 c 0
 426.25912 816.5844 470.31701 833.0721 518.08866 852.8099 c 1
 569.58237 862.3747 615.70045 880.8337 663.40861 893.9392 c 0
 667.82128 895.0939 672.41766 890.7303 673.43693 884.4185 c 0
 673.87824 881.6861 675.45679 873.9618 676.94477 867.2534 c 0
 681.17282 839.1387 696.02667 817.9094 695.31332 796.1404 c 0
 694.98465 787.1077 688.74816 779.114 680.60293 777.2848 c 0
 660.19781 765.3218 654.62666 740.2911 651.88435 714.1196 c 0
 651.37107 709.2207 650.95687 704.2816 650.56299 699.3808 c 0
 648.90911 678.8004 647.61464 658.8948 640.84799 645.4571 c 0
 631.69632 630.0314 617.18044 631.6761 607.76348 619.3148 c 0
 594.44511 606.9586 584.05063 593.5494 574.90209 580.495 c 0
 567.25386 569.1988 560.62602 558.2877 551.2034 550.2529 c 0
 545.69695 545.5721 540.27703 541.4479 537.2015 535.6986 c 0
 528.83011 519.8595 519.68056 510.0657 513.25472 510.0657 c 0
 500.71946 504.6959 482.61195 496.6328 472.35728 489.4723 c 0
 469.56706 487.4453 466.85062 485.346 463.95151 483.6336 c 0
 459.79321 481.1982 455.91567 480.0143 452.80567 480.7137 c 0
 450.89884 481.5097 449.24749 483.0043 448.14581 484.7597 c 0
 446.76167 486.9652 446.24546 489.5825 447.18083 491.7428 c 0
 448.75544 493.4934 450.91248 498.0996 452.28975 500.2434 c 0
 454.29819 503.3694 455.45416 504.1824 457.3997 507.4766 c 0
 467.54103 524.6237 472.77805 550.1645 483.95524 563.0614 c 0
 509.25039 592.2827 543.9813 624.2252 561.63863 655.9507 c 0
 569.02046 668.0418 571.47939 681.5544 574.12596 694.5232 c 0
 577.21372 709.6668 580.16004 725.0979 580.8279 738.5027 c 0
 578.84879 758.9606 569.02551 758.0158 555.08833 759.5524 c 0
 542.25958 760.9526 531.61336 761.157 517.89748 759.5124 c 0
 478.43595 754.7088 439.71871 734.2109 407.78451 723.0689 c 0
 401.99165 721.0951 391.75022 716.0744 383.46395 713.0055 c 0
 372.91914 710.4545 366.72906 703.8773 366.94803 692.0567 c 0
 373.04652 625.8175 383.45981 554.265 397.4618 494.716 c 0
 407.55794 451.552 414.23522 408.9798 425.47883 368.4959 c 0
 437.82705 315.5183 445.92002 269.2026 452.2843 217.4098 c 0
 453.40845 194.5472 458.75501 166.9387 447.3809 147.8585 c 0
 442.25933 139.9064 430.86094 127.8856 424.75154 131.2254 c 0
 423.21416 132.2102 421.24848 133.2575 419.37232 133.8817 c 0
 418.07843 134.3031 415.58199 133.9397 413.0809 133.3116 c 0
 408.88396 132.4244 407.59563 131.9292 406.80411 130.8648 c 0
 406.1973 130.0488 405.88247 128.8982 404.77296 126.9802 c 0
 400.59681 122.5484 396.39803 124.4418 392.41648 123.2752 c 0
 379.87783 119.6014 369.4936 125.9557 368.75538 141.0946 c 0
EndSplineSet
Validated: 524833
EndChar

StartChar: "+BegF1QW5BekFwQAA"
Encoding: 28 1512 28
Width: 700
Flags: W
LayerCount: 2
Fore
SplineSet
110.08017 858.02833 m 0
 134.80765 889.57019 166.79121 906.9491 191.49956 892.49164 c 0
 197.67049 887.72296 201.37609 850.54724 200.00559 807.16033 c 0
 199.74033 798.75953 199.62447 792.7919 199.64307 788.55352 c 0
 200.49886 777.22033 205.90358 772.076 215.19656 762.65966 c 0
 218.52958 759.31415 222.36407 756.1029 226.37099 753.4539 c 0
 235.70362 747.32038 241.19234 746.73071 246.75408 747.83029 c 0
 266.9782 754.49562 282.17291 749.70162 300.955 756.12913 c 0
 310.172 759.44815 316.84567 760.55245 323.82272 760.36301 c 0
 334.50699 759.95808 344.33208 757.01095 354.3298 756.77554 c 0
 365.94592 756.77354 376.70822 761.87034 387.6528 760.18975 c 0
 406.26188 757.17741 420.97162 741.75579 430.1935 732.66248 c 0
 440.56459 722.43598 447.34547 705.13752 454.03923 681.48031 c 0
 467.49706 633.82742 479.43127 585.27434 489.62966 536.25311 c 0
 500.67274 483.17223 509.68189 429.5423 516.39017 375.91211 c 0
 521.26422 338.66559 525.89819 301.78017 525.54726 266.50823 c 0
 523.35193 237.36645 526.66205 205.38797 516.27321 179.05765 c 0
 508.3498 158.97306 489.39264 142.1747 472.02442 132.42854 c 0
 437.35916 120.51638 424.70562 123.61738 420.93586 134.86971 c 1
 424.97054 194.85682 419.24671 253.42021 408.74914 310.41855 c 0
 399.88699 362.2173 386.15376 396.89488 373.83658 442.65992 c 0
 367.93565 464.58408 362.35987 486.45516 357.80035 508.88539 c 0
 353.92826 528.14226 347.77262 526.65851 340.65656 543.31062 c 0
 338.53245 548.09544 338.08235 553.48438 337.21248 558.0623 c 0
 334.87838 565.60811 331.90212 567.7124 328.16328 568.56621 c 0
 324.08272 569.49806 319.09382 568.94041 313.04004 572.34168 c 0
 295.67649 584.33036 274.23648 583.08769 255.41003 584.63758 c 0
 234.2014 586.54625 214.80364 583.86972 195.14643 586.4429 c 0
 183.1047 588.02186 171.43206 589.50969 163.93004 585.16796 c 0
 141.9195 571.797 119.17788 573.64896 103.42641 580.06968 c 0
 92.2985 584.60529 82.400216 594.80949 73.258519 611.7145 c 0
 59.003719 638.47285 67.087379 682.06934 66.212789 712.12813 c 0
 65.602149 736.79917 64.062949 773.22976 67.175399 797.41323 c 0
 70.599179 818.83569 77.102264 824.19675 83.805613 828.10338 c 1
 90.267473 840.0618 103.33967 849.77475 110.08017 858.02833 c 0
EndSplineSet
Validated: 524833
EndChar

StartChar: "+BekFtAXBBdkF3wAA"
Encoding: 29 1513 29
Width: 1000
Flags: W
LayerCount: 2
Fore
SplineSet
68.407698 766.09029 m 0
 73.358861 788.19398 82.144077 807.65432 97.256124 820.55119 c 0
 103.3378 825.7414 110.44416 829.8686 118.73767 832.6773 c 0
 134.10653 837.79313 151.64042 838.33936 168.66236 838.14229 c 0
 184.59054 836.45656 200.6095 824.83005 212.73523 809.66398 c 0
 233.45375 782.01491 224.617 741.98552 224.20234 711.39471 c 0
 224.91288 686.11969 239.13576 660.49456 240.175 637.19957 c 0
 239.0803 618.8175 241.60808 621.62682 242.48188 602.17524 c 0
 247.88098 580.76693 253.44746 590.35318 260.16056 593.78708 c 0
 265.14116 597.4442 287.32726 604.36259 292.20688 608.24704 c 0
 316.8586 632.56365 322.73273 669.39722 334.55744 703.89201 c 1
 342.57469 741.71758 355.43758 771.80721 380.7674 795.55559 c 0
 384.82345 799.35841 389.19917 802.99862 393.92585 806.48197 c 0
 396.71332 810.9826 401.2676 816.4273 406.13855 821.15891 c 0
 414.68324 825.91407 443.3975 832.28258 448.1536 830.96165 c 0
 475.44422 821.8807 501.41037 808.68828 501.80596 778.5037 c 0
 501.78416 768.88458 497.478 761.33362 497.58536 750.1669 c 0
 488.13383 709.21226 464.28498 670.48843 421.64465 639.51947 c 0
 408.44648 629.93385 402.19081 611.98455 398.58067 602.27561 c 0
 391.33373 582.78603 389.19983 565.20657 368.51576 558.20341 c 0
 353.56306 553.76522 350.57838 552.23384 332.32738 543.79091 c 0
 326.02438 538.11084 304.3625 532.51302 292.82351 528.51622 c 0
 281.70196 524.664 272.84837 518.8313 270.96493 514.99369 c 0
 268.80729 482.6497 274.38074 453.71307 278.29572 422.91948 c 0
 278.39693 421.72131 299.71068 408.84526 314.37747 414.7103 c 0
 333.48535 419.65872 351.90562 426.28531 369.68134 434.14206 c 0
 411.11415 452.45508 458.45948 499.41798 493.43447 525.42428 c 1
 535.04914 575.73816 589.19645 587.56202 611.01662 645.65356 c 0
 617.29477 663.38394 620.51607 682.17843 623.01887 701.4728 c 0
 624.65433 731.03265 636.29912 760.25464 652.33712 781.08079 c 0
 667.74625 799.4296 683.18505 820.86023 697.35309 825.81967 c 0
 707.70569 828.86957 710.01109 830.57125 719.95949 830.14263 c 0
 731.6471 827.77814 743.21992 821.82015 753.02352 813.82313 c 0
 763.84937 804.99223 772.51782 793.67489 776.80105 781.96429 c 0
 780.94228 770.26059 782.66525 757.36684 783.4346 744.22445 c 0
 784.02708 733.00044 782.87167 722.05754 779.87936 707.41288 c 0
 778.3688 679.59519 762.80217 658.94768 746.76489 640.30409 c 0
 733.36146 627.07335 724.76861 610.75704 711.29887 599.63967 c 0
 699.60367 590.06694 672.87621 581.11269 661.79582 570.05945 c 0
 583.64021 512.83575 496.89577 429.56979 419.48379 377.21826 c 0
 398.07626 362.74096 381.27019 352.3574 359.57719 348.22872 c 1
 338.3151 350.45785 313.32157 348.41121 312.87742 345.49665 c 0
 304.58594 346.73286 288.39007 340.86501 283.08769 334.35919 c 0
 267.85296 316.39218 263.60728 292.56872 249.92758 276.24822 c 0
 247.83841 273.88495 246.49235 270.95669 244.19913 269.87283 c 0
 234.03459 268.04593 207.24042 266.76622 200.57488 270.84551 c 0
 198.19111 272.43301 197.88306 273.66373 195.95668 276.22518 c 0
 191.49059 297.31198 190.14009 315.37861 188.20519 334.24188 c 0
 186.06177 355.13798 184.56271 375.99056 181.69473 399.72582 c 0
 162.60033 492.37385 150.07189 558.1823 122.65376 641.05103 c 0
 120.07326 648.62982 117.063 656.04133 113.43134 663.24163 c 0
 93.363604 689.70959 80.674335 700.43873 72.409245 720.58759 c 0
 65.171809 738.5669 64.501471 748.4849 68.407698 766.09029 c 0
EndSplineSet
Validated: 524833
EndChar

StartChar: "+BeoFtwW8BdAF1QW8"
Encoding: 30 1514 30
Width: 1042
Flags: W
LayerCount: 2
Fore
SplineSet
138.93642 226.59092 m 1
 178.82265 236.20037 218.65929 226.10682 258.30047 228.64998 c 1
 258.30047 244.2418 l 2
 261.5266 285.88567 256.15643 308.61889 256.15643 346.68433 c 0
 256.43713 389.21816 214.45099 439.11333 211.57576 478.12092 c 1
 202.43989 491.19962 173.00342 509.04546 169.09619 524.64587 c 0
 161.76958 538.68329 159.07389 547.31303 161.6975 561.27711 c 0
 165.07456 578.96272 171.42892 594.80125 169.53639 617.94083 c 0
 167.19234 642.68649 159.12922 665.9223 151.09269 688.73908 c 0
 145.57155 703.55296 145.1086 704.1679 142.44324 715.18751 c 0
 140.41758 723.56218 140.91115 728.25475 142.50694 733.53265 c 0
 143.32499 736.23811 144.43279 739.09737 145.63937 742.68522 c 0
 154.87264 772.22086 148.6105 802.76739 160.33041 827.40475 c 0
 161.34694 829.57739 162.07474 831.81675 162.3336 834.39827 c 0
 170.17924 864.72411 231.3497 893.32947 265.36521 898.355 c 0
 281.72309 900.55186 305.55201 902.92495 314.09824 891.22684 c 0
 330.76499 865.57066 336.23516 808.54208 337.24961 788.57234 c 1
 341.88897 777.58885 347.68589 767.23142 355.58817 759.42787 c 0
 363.50288 751.61206 370.77478 749.18666 383.86579 748.43159 c 1
 390.66515 752.14791 400.59278 752.55173 408.04308 755.36071 c 0
 479.84927 775.36061 575.20789 790.66724 642.34447 753.84045 c 0
 648.42565 750.50471 654.27529 746.74123 659.85489 742.51476 c 0
 680.71611 722.27314 687.91654 707.2787 701.89783 684.20284 c 0
 715.55212 663.55277 728.59511 643.0863 739.44918 622.7373 c 0
 747.04439 608.49793 753.56777 594.31606 758.47875 580.16905 c 0
 760.33606 573.78026 770.93022 550.15241 772.41561 544.71838 c 0
 795.20961 461.33094 779.3224 492.31099 791.49199 466.4346 c 0
 812.33987 421.65885 791.66249 382.64931 791.66249 346.2037 c 0
 792.17838 313.1296 801.25765 295.07669 801.25765 262.07606 c 0
 803.70254 244.72937 797.51458 232.27998 795.78975 219.48422 c 1
 784.56455 210.67087 780.68143 203.73176 768.32883 196.28169 c 0
 759.60038 191.01742 753.25555 182.69154 744.19564 180.14954 c 0
 725.46317 175.02155 703.59238 175.28963 688.22268 174.88238 c 0
 681.38547 175.32836 643.63136 180.20166 639.01699 182.99085 c 0
 625.84921 190.95019 624.59156 215.20477 630.20095 233.47345 c 0
 633.28484 243.51705 648.48445 243.32829 648.79846 252.29672 c 0
 649.01087 258.36338 651.95957 262.81765 652.22257 268.01345 c 0
 653.84176 272.41601 649.95776 292.39816 646.71431 306.40918 c 0
 642.83389 317.29554 642.35975 329.58026 642.20353 339.85105 c 0
 642.00618 353.56168 642.4067 367.3216 642.79523 377.4174 c 0
 643.5034 393.24401 641.57563 410.30661 640.31259 422.63465 c 0
 638.33821 431.40194 640.27229 439.89043 641.81745 447.9672 c 0
 644.51792 462.16563 643.82661 467.9187 633.01449 473.9877 c 0
 618.65931 482.04547 601.98466 482.8612 596.53254 503.68829 c 0
 595.9578 505.03752 595.36428 506.44524 594.764 507.88027 c 0
 593.03328 512.01772 591.24619 516.38221 589.68987 520.2264 c 0
 588.36782 523.49193 587.21228 526.38202 586.39927 528.43858 c 0
 585.2968 531.26594 582.82972 538.98697 581.63514 542.18044 c 0
 567.81069 566.72378 546.54019 607.27777 520.92137 622.8266 c 1
 502.80217 627.00102 485.07705 626.98723 467.98356 625.60461 c 0
 434.07475 622.85201 400.81792 618.43204 370.38163 607.19828 c 0
 363.57314 604.63172 358.17411 601.39443 354.97757 597.11436 c 0
 347.01707 580.35437 354.22731 555.76544 353.30961 544.08007 c 0
 353.93066 522.77037 355.71389 503.42846 354.38543 482.18351 c 1
 364.87686 466.06806 370.54881 446.84966 378.45215 429.28589 c 0
 388.05585 407.94332 401.04039 386.25959 405.85676 366.00422 c 0
 405.58464 350.68187 409.86859 325.62946 410.72016 309.95471 c 0
 413.09871 266.17271 413.68192 231.42377 405.81884 192.3223 c 0
 403.21445 189.89759 400.58217 187.48348 397.92501 185.08564 c 0
 373.89421 163.01526 346.43363 148.54427 323.53128 130.49311 c 0
 315.16694 123.9162 307.68817 116.9147 301.49398 109.48147 c 0
 290.36719 96.499256 272.9302 83.599566 257.84414 82.439216 c 0
 238.85253 77.722366 215.70965 75.281866 198.66574 74.373696 c 0
 178.91922 73.495496 156.57157 76.546726 139.67195 78.638266 c 0
 119.41577 81.327806 100.03821 88.940906 83.295484 98.572526 c 0
 79.593376 100.8589 76.151811 103.94049 73.007771 108.27138 c 0
 61.780729 123.7691 61.561377 150.51112 69.058185 170.09921 c 0
 85.06533 198.66281 113.90806 217.71365 138.93605 226.59092 c 1
 138.93642 226.59092 l 1
EndSplineSet
Validated: 524833
EndChar

StartChar: Separator
Encoding: 32 67871 31
Width: 1024
Flags: W
LayerCount: 2
Fore
SplineSet
613.0005 813.57504 m 0
 629.22171 713.15407 640.2418 603.97496 642.48249 499.48331 c 0
 645.29297 368.42037 645.61045 246.9958 613.73556 157.21426 c 1
 595.50721 119.54046 510.81089 135.05271 481.99701 139.01218 c 1
 391.47923 133.46901 372.23796 124.65478 367.59927 159.22247 c 0
 356.73756 248.99232 345.58561 370.86572 340.17765 497.30363 c 1
 375.75008 603.12086 328.74602 731.60296 368.1157 823.09446 c 1
 378.87354 825.18769 426.40404 830.47875 468.81641 832.35772 c 0
 480.78856 832.88811 490.08905 837.67429 500.30333 837.51224 c 0
 511.36798 837.33671 524.3053 832.28596 534.36886 831.50091 c 0
 577.80997 828.1121 609.8859 819.84198 613.0005 813.57504 c 0
473.32241 892.07037 m 1
 463.81836 878.24919 396.39621 888.25448 350.97967 889.6168 c 0
 331.48011 890.20171 304.71793 884.6657 299.65713 879.49426 c 0
 295.91803 868.3407 294.76969 850.10432 291.65496 838.2372 c 0
 269.96137 755.58454 271.75158 663.76894 268.94837 495.92684 c 0
 267.11588 386.20678 270.25485 233.52171 293.836 141.44605 c 0
 296.13437 126.8545 300.15144 115.12229 305.55575 105.69671 c 0
 314.20666 90.608773 326.41221 81.431293 340.81286 75.897183 c 0
 377.4819 61.805433 439.70286 73.600723 482.39132 69.325623 c 0
 549.20063 62.093183 604.81393 55.209113 647.57777 82.905033 c 0
 656.93604 88.965903 665.1369 96.574363 671.92576 106.04171 c 0
 680.02689 117.33908 686.11741 131.28343 689.76474 148.40371 c 0
 710.04269 259.44658 709.18206 388.07241 714.41659 502.71661 c 0
 720.11266 627.46925 715.92155 741.48677 683.70607 841.48635 c 0
 679.21738 855.41965 660.73349 866.81697 655.40805 880.1971 c 0
 649.38321 890.39645 633.50954 892.95398 610.81191 889.70185 c 0
 583.72074 885.82021 553.35826 880.11222 540.26514 891.09053 c 1
 511.22527 903.90737 485.46951 899.76038 473.32241 892.07037 c 1
EndSplineSet
Validated: 524329
EndChar
